{
    "asset" : {
        "generator" : "Khronos Blender glTF 2.0 I/O",
        "version" : "2.0"
    },
    "scene" : 0,
    "scenes" : [
        {
            "extras" : {
                "glTF2ExportSettings" : {
                    "export_animations" : 0,
                    "export_extras" : 1,
                    "export_format" : "GLTF_EMBEDDED",
                    "export_selected" : 1
                }
            },
            "name" : "Scene",
            "nodes" : [
                0,
                1,
                2,
                3,
                4,
                5,
                6,
                7,
                8,
                9
            ]
        }
    ],
    "nodes" : [
        {
            "mesh" : 0,
            "name" : "tri1",
            "rotation" : [
                0.7071068286895752,
                0,
                0,
                0.7071068286895752
            ],
            "scale" : [
                1,
                8.136465072631836,
                6.410117149353027
            ],
            "translation" : [
                0,
                6.4253435134887695,
                0
            ]
        },
        {
            "mesh" : 1,
            "name" : "tri2",
            "rotation" : [
                0.7071068286895752,
                0,
                0,
                0.7071068286895752
            ],
            "scale" : [
                1,
                8.136465072631836,
                6.410117149353027
            ],
            "translation" : [
                0,
                6.4253435134887695,
                0
            ]
        },
        {
            "mesh" : 2,
            "name" : "tri3",
            "rotation" : [
                0.7071068286895752,
                0,
                0,
                0.7071068286895752
            ],
            "scale" : [
                1,
                8.136465072631836,
                6.410117149353027
            ],
            "translation" : [
                0,
                6.4253435134887695,
                0
            ]
        },
        {
            "mesh" : 3,
            "name" : "tri4",
            "rotation" : [
                0.7071068286895752,
                0,
                0,
                0.7071068286895752
            ],
            "scale" : [
                1,
                8.136465072631836,
                6.410117149353027
            ],
            "translation" : [
                0,
                6.4253435134887695,
                0
            ]
        },
        {
            "mesh" : 4,
            "name" : "tri5",
            "rotation" : [
                0.7071068286895752,
                0,
                0,
                0.7071068286895752
            ],
            "scale" : [
                1,
                8.136465072631836,
                6.410117149353027
            ],
            "translation" : [
                0,
                6.4253435134887695,
                0
            ]
        },
        {
            "mesh" : 5,
            "name" : "tri6",
            "rotation" : [
                0.7071068286895752,
                0,
                0,
                0.7071068286895752
            ],
            "scale" : [
                1,
                8.136465072631836,
                6.410117149353027
            ],
            "translation" : [
                0,
                6.4253435134887695,
                0
            ]
        },
        {
            "mesh" : 6,
            "name" : "tri7",
            "rotation" : [
                0.7071068286895752,
                0,
                0,
                0.7071068286895752
            ],
            "scale" : [
                1,
                8.136465072631836,
                6.410117149353027
            ],
            "translation" : [
                0,
                6.4253435134887695,
                0
            ]
        },
        {
            "mesh" : 7,
            "name" : "tri8",
            "rotation" : [
                0.7071068286895752,
                0,
                0,
                0.7071068286895752
            ],
            "scale" : [
                1,
                8.136465072631836,
                6.410117149353027
            ],
            "translation" : [
                0,
                6.4253435134887695,
                0
            ]
        },
        {
            "mesh" : 8,
            "name" : "tri9",
            "rotation" : [
                0.7071068286895752,
                0,
                0,
                0.7071068286895752
            ],
            "scale" : [
                1,
                8.136465072631836,
                6.410117149353027
            ],
            "translation" : [
                0,
                6.4253435134887695,
                0
            ]
        },
        {
            "mesh" : 9,
            "name" : "tri10",
            "rotation" : [
                0.7071068286895752,
                0,
                0,
                0.7071068286895752
            ],
            "scale" : [
                1,
                8.136465072631836,
                6.410117149353027
            ],
            "translation" : [
                0,
                6.4253435134887695,
                0
            ]
        }
    ],
    "materials" : [
        {
            "name" : "Material.033",
            "pbrMetallicRoughness" : {
                "baseColorTexture" : {
                    "index" : 0,
                    "texCoord" : 0
                },
                "metallicFactor" : 0,
                "roughnessFactor" : 0.5
            }
        }
    ],
    "meshes" : [
        {
            "name" : "Cylinder.000",
            "primitives" : [
                {
                    "attributes" : {
                        "POSITION" : 0,
                        "NORMAL" : 1,
                        "TEXCOORD_0" : 2
                    },
                    "indices" : 3,
                    "material" : 0
                }
            ]
        },
        {
            "name" : "Cylinder.004",
            "primitives" : [
                {
                    "attributes" : {
                        "POSITION" : 4,
                        "NORMAL" : 5,
                        "TEXCOORD_0" : 6
                    },
                    "indices" : 3,
                    "material" : 0
                }
            ]
        },
        {
            "name" : "Cylinder.005",
            "primitives" : [
                {
                    "attributes" : {
                        "POSITION" : 7,
                        "NORMAL" : 8,
                        "TEXCOORD_0" : 9
                    },
                    "indices" : 3,
                    "material" : 0
                }
            ]
        },
        {
            "name" : "Cylinder.006",
            "primitives" : [
                {
                    "attributes" : {
                        "POSITION" : 10,
                        "NORMAL" : 11,
                        "TEXCOORD_0" : 12
                    },
                    "indices" : 13,
                    "material" : 0
                }
            ]
        },
        {
            "name" : "Cylinder.007",
            "primitives" : [
                {
                    "attributes" : {
                        "POSITION" : 14,
                        "NORMAL" : 15,
                        "TEXCOORD_0" : 16
                    },
                    "indices" : 13,
                    "material" : 0
                }
            ]
        },
        {
            "name" : "Cylinder.008",
            "primitives" : [
                {
                    "attributes" : {
                        "POSITION" : 17,
                        "NORMAL" : 18,
                        "TEXCOORD_0" : 19
                    },
                    "indices" : 3,
                    "material" : 0
                }
            ]
        },
        {
            "name" : "Cylinder.009",
            "primitives" : [
                {
                    "attributes" : {
                        "POSITION" : 20,
                        "NORMAL" : 21,
                        "TEXCOORD_0" : 22
                    },
                    "indices" : 13,
                    "material" : 0
                }
            ]
        },
        {
            "name" : "Cylinder.010",
            "primitives" : [
                {
                    "attributes" : {
                        "POSITION" : 23,
                        "NORMAL" : 24,
                        "TEXCOORD_0" : 25
                    },
                    "indices" : 3,
                    "material" : 0
                }
            ]
        },
        {
            "name" : "Cylinder.011",
            "primitives" : [
                {
                    "attributes" : {
                        "POSITION" : 26,
                        "NORMAL" : 27,
                        "TEXCOORD_0" : 28
                    },
                    "indices" : 3,
                    "material" : 0
                }
            ]
        },
        {
            "name" : "Cylinder.012",
            "primitives" : [
                {
                    "attributes" : {
                        "POSITION" : 29,
                        "NORMAL" : 30,
                        "TEXCOORD_0" : 31
                    },
                    "indices" : 3,
                    "material" : 0
                }
            ]
        }
    ],
    "textures" : [
        {
            "source" : 0
        }
    ],
    "images" : [
        {
            "bufferView" : 4,
            "mimeType" : "image/png",
            "name" : "information_textures.png"
        }
    ],
    "accessors" : [
        {
            "bufferView" : 0,
            "componentType" : 5126,
            "count" : 18,
            "max" : [
                16.46157455444336,
                0.061451759189367294,
                1.0017180442810059
            ],
            "min" : [
                14.729522705078125,
                -0.1229035034775734,
                -0.9982820153236389
            ],
            "type" : "VEC3"
        },
        {
            "bufferView" : 1,
            "componentType" : 5126,
            "count" : 18,
            "type" : "VEC3"
        },
        {
            "bufferView" : 2,
            "componentType" : 5126,
            "count" : 18,
            "type" : "VEC2"
        },
        {
            "bufferView" : 3,
            "componentType" : 5123,
            "count" : 24,
            "type" : "SCALAR"
        },
        {
            "bufferView" : 5,
            "componentType" : 5126,
            "count" : 18,
            "max" : [
                14.727113723754883,
                0.061451759189367294,
                1.0017180442810059
            ],
            "min" : [
                12.995062828063965,
                -0.1229035034775734,
                -0.9982820153236389
            ],
            "type" : "VEC3"
        },
        {
            "bufferView" : 6,
            "componentType" : 5126,
            "count" : 18,
            "type" : "VEC3"
        },
        {
            "bufferView" : 7,
            "componentType" : 5126,
            "count" : 18,
            "type" : "VEC2"
        },
        {
            "bufferView" : 8,
            "componentType" : 5126,
            "count" : 18,
            "max" : [
                12.992653846740723,
                0.061451759189367294,
                1.0017180442810059
            ],
            "min" : [
                11.260602951049805,
                -0.1229035034775734,
                -0.9982820153236389
            ],
            "type" : "VEC3"
        },
        {
            "bufferView" : 9,
            "componentType" : 5126,
            "count" : 18,
            "type" : "VEC3"
        },
        {
            "bufferView" : 10,
            "componentType" : 5126,
            "count" : 18,
            "type" : "VEC2"
        },
        {
            "bufferView" : 11,
            "componentType" : 5126,
            "count" : 18,
            "max" : [
                11.261497497558594,
                0.061451759189367294,
                1.0017180442810059
            ],
            "min" : [
                9.529446601867676,
                -0.1229035034775734,
                -0.9982820153236389
            ],
            "type" : "VEC3"
        },
        {
            "bufferView" : 12,
            "componentType" : 5126,
            "count" : 18,
            "type" : "VEC3"
        },
        {
            "bufferView" : 13,
            "componentType" : 5126,
            "count" : 18,
            "type" : "VEC2"
        },
        {
            "bufferView" : 14,
            "componentType" : 5123,
            "count" : 24,
            "type" : "SCALAR"
        },
        {
            "bufferView" : 15,
            "componentType" : 5126,
            "count" : 18,
            "max" : [
                9.530341148376465,
                0.061451759189367294,
                1.0017180442810059
            ],
            "min" : [
                7.798290252685547,
                -0.1229035034775734,
                -0.9982820153236389
            ],
            "type" : "VEC3"
        },
        {
            "bufferView" : 16,
            "componentType" : 5126,
            "count" : 18,
            "type" : "VEC3"
        },
        {
            "bufferView" : 17,
            "componentType" : 5126,
            "count" : 18,
            "type" : "VEC2"
        },
        {
            "bufferView" : 18,
            "componentType" : 5126,
            "count" : 18,
            "max" : [
                7.795881271362305,
                0.061451759189367294,
                1.0017180442810059
            ],
            "min" : [
                6.063830375671387,
                -0.1229035034775734,
                -0.9982820153236389
            ],
            "type" : "VEC3"
        },
        {
            "bufferView" : 19,
            "componentType" : 5126,
            "count" : 18,
            "type" : "VEC3"
        },
        {
            "bufferView" : 20,
            "componentType" : 5126,
            "count" : 18,
            "type" : "VEC2"
        },
        {
            "bufferView" : 21,
            "componentType" : 5126,
            "count" : 18,
            "max" : [
                6.0614213943481445,
                0.061451759189367294,
                1.0017180442810059
            ],
            "min" : [
                4.329370498657227,
                -0.1229035034775734,
                -0.9982820153236389
            ],
            "type" : "VEC3"
        },
        {
            "bufferView" : 22,
            "componentType" : 5126,
            "count" : 18,
            "type" : "VEC3"
        },
        {
            "bufferView" : 23,
            "componentType" : 5126,
            "count" : 18,
            "type" : "VEC2"
        },
        {
            "bufferView" : 24,
            "componentType" : 5126,
            "count" : 18,
            "max" : [
                4.330265045166016,
                0.061451759189367294,
                1.0017180442810059
            ],
            "min" : [
                2.5982141494750977,
                -0.1229035034775734,
                -0.9982820153236389
            ],
            "type" : "VEC3"
        },
        {
            "bufferView" : 25,
            "componentType" : 5126,
            "count" : 18,
            "type" : "VEC3"
        },
        {
            "bufferView" : 26,
            "componentType" : 5126,
            "count" : 18,
            "type" : "VEC2"
        },
        {
            "bufferView" : 27,
            "componentType" : 5126,
            "count" : 18,
            "max" : [
                2.5991086959838867,
                0.061451759189367294,
                1.0017180442810059
            ],
            "min" : [
                0.8670578002929688,
                -0.1229035034775734,
                -0.9982820153236389
            ],
            "type" : "VEC3"
        },
        {
            "bufferView" : 28,
            "componentType" : 5126,
            "count" : 18,
            "type" : "VEC3"
        },
        {
            "bufferView" : 29,
            "componentType" : 5126,
            "count" : 18,
            "type" : "VEC2"
        },
        {
            "bufferView" : 30,
            "componentType" : 5126,
            "count" : 18,
            "max" : [
                0.8660253882408142,
                0.061451759189367294,
                1.0017180442810059
            ],
            "min" : [
                -0.866025447845459,
                -0.1229035034775734,
                -0.9982820153236389
            ],
            "type" : "VEC3"
        },
        {
            "bufferView" : 31,
            "componentType" : 5126,
            "count" : 18,
            "type" : "VEC3"
        },
        {
            "bufferView" : 32,
            "componentType" : 5126,
            "count" : 18,
            "type" : "VEC2"
        }
    ],
    "bufferViews" : [
        {
            "buffer" : 0,
            "byteLength" : 216,
            "byteOffset" : 0
        },
        {
            "buffer" : 0,
            "byteLength" : 216,
            "byteOffset" : 216
        },
        {
            "buffer" : 0,
            "byteLength" : 144,
            "byteOffset" : 432
        },
        {
            "buffer" : 0,
            "byteLength" : 48,
            "byteOffset" : 576
        },
        {
            "buffer" : 0,
            "byteLength" : 90024,
            "byteOffset" : 624
        },
        {
            "buffer" : 0,
            "byteLength" : 216,
            "byteOffset" : 90648
        },
        {
            "buffer" : 0,
            "byteLength" : 216,
            "byteOffset" : 90864
        },
        {
            "buffer" : 0,
            "byteLength" : 144,
            "byteOffset" : 91080
        },
        {
            "buffer" : 0,
            "byteLength" : 216,
            "byteOffset" : 91224
        },
        {
            "buffer" : 0,
            "byteLength" : 216,
            "byteOffset" : 91440
        },
        {
            "buffer" : 0,
            "byteLength" : 144,
            "byteOffset" : 91656
        },
        {
            "buffer" : 0,
            "byteLength" : 216,
            "byteOffset" : 91800
        },
        {
            "buffer" : 0,
            "byteLength" : 216,
            "byteOffset" : 92016
        },
        {
            "buffer" : 0,
            "byteLength" : 144,
            "byteOffset" : 92232
        },
        {
            "buffer" : 0,
            "byteLength" : 48,
            "byteOffset" : 92376
        },
        {
            "buffer" : 0,
            "byteLength" : 216,
            "byteOffset" : 92424
        },
        {
            "buffer" : 0,
            "byteLength" : 216,
            "byteOffset" : 92640
        },
        {
            "buffer" : 0,
            "byteLength" : 144,
            "byteOffset" : 92856
        },
        {
            "buffer" : 0,
            "byteLength" : 216,
            "byteOffset" : 93000
        },
        {
            "buffer" : 0,
            "byteLength" : 216,
            "byteOffset" : 93216
        },
        {
            "buffer" : 0,
            "byteLength" : 144,
            "byteOffset" : 93432
        },
        {
            "buffer" : 0,
            "byteLength" : 216,
            "byteOffset" : 93576
        },
        {
            "buffer" : 0,
            "byteLength" : 216,
            "byteOffset" : 93792
        },
        {
            "buffer" : 0,
            "byteLength" : 144,
            "byteOffset" : 94008
        },
        {
            "buffer" : 0,
            "byteLength" : 216,
            "byteOffset" : 94152
        },
        {
            "buffer" : 0,
            "byteLength" : 216,
            "byteOffset" : 94368
        },
        {
            "buffer" : 0,
            "byteLength" : 144,
            "byteOffset" : 94584
        },
        {
            "buffer" : 0,
            "byteLength" : 216,
            "byteOffset" : 94728
        },
        {
            "buffer" : 0,
            "byteLength" : 216,
            "byteOffset" : 94944
        },
        {
            "buffer" : 0,
            "byteLength" : 144,
            "byteOffset" : 95160
        },
        {
            "buffer" : 0,
            "byteLength" : 216,
            "byteOffset" : 95304
        },
        {
            "buffer" : 0,
            "byteLength" : 216,
            "byteOffset" : 95520
        },
        {
            "buffer" : 0,
            "byteLength" : 144,
            "byteOffset" : 95736
        }
    ],
    "buffers" : [
        {
            "byteLength" : 95880,
            "uri" : "data:application/octet-stream;base64,"
        }
    ]
}
