{
    "asset" : {
        "generator" : "Khronos Blender glTF 2.0 I/O",
        "version" : "2.0"
    },
    "scene" : 0,
    "scenes" : [
        {
            "extras" : {
                "glTF2ExportSettings" : {
                    "export_animations" : 0,
                    "export_extras" : 1,
                    "export_format" : "GLTF_EMBEDDED",
                    "export_selected" : 1
                }
            },
            "name" : "Scene",
            "nodes" : [
                0
            ]
        }
    ],
    "nodes" : [
        {
            "mesh" : 0,
            "name" : "Icosphere.003",
            "scale" : [
                0.9766545295715332,
                0.9766545295715332,
                0.9766545295715332
            ],
            "translation" : [
                -14.123440742492676,
                16.297399520874023,
                5.440726280212402
            ]
        }
    ],
    "materials" : [
        {
            "name" : "Material.019",
            "pbrMetallicRoughness" : {
                "baseColorFactor" : [
                    0.800000011920929,
                    0.800000011920929,
                    0.800000011920929,
                    1
                ],
                "metallicFactor" : 0,
                "roughnessFactor" : 0.5
            }
        }
    ],
    "meshes" : [
        {
            "name" : "Icosphere.007",
            "primitives" : [
                {
                    "attributes" : {
                        "POSITION" : 0,
                        "NORMAL" : 1,
                        "TEXCOORD_0" : 2
                    },
                    "indices" : 3,
                    "material" : 0
                }
            ]
        }
    ],
    "accessors" : [
        {
            "bufferView" : 0,
            "componentType" : 5126,
            "count" : 480,
            "max" : [
                1.8078187704086304,
                1.6442537307739258,
                1.1206086874008179
            ],
            "min" : [
                -5.360622406005859,
                -0.9259536266326904,
                -1.198691487312317
            ],
            "type" : "VEC3"
        },
        {
            "bufferView" : 1,
            "componentType" : 5126,
            "count" : 480,
            "type" : "VEC3"
        },
        {
            "bufferView" : 2,
            "componentType" : 5126,
            "count" : 480,
            "type" : "VEC2"
        },
        {
            "bufferView" : 3,
            "componentType" : 5123,
            "count" : 480,
            "type" : "SCALAR"
        }
    ],
    "bufferViews" : [
        {
            "buffer" : 0,
            "byteLength" : 5760,
            "byteOffset" : 0
        },
        {
            "buffer" : 0,
            "byteLength" : 5760,
            "byteOffset" : 5760
        },
        {
            "buffer" : 0,
            "byteLength" : 3840,
            "byteOffset" : 11520
        },
        {
            "buffer" : 0,
            "byteLength" : 960,
            "byteOffset" : 15360
        }
    ],
    "buffers" : [
        {
            "byteLength" : 16320,
            "uri" : "data:application/octet-stream;base64,"
        }
    ]
}
