<svg id="Layer_1" data-name="Layer 1" xmlns="http://www.w3.org/2000/svg" xmlns:xlink="http://www.w3.org/1999/xlink" viewBox="0 0 559.89 367.93"><defs><style>.cls-1,.cls-3{fill:none;}.cls-2{clip-path:url(#clip-path);}.cls-3{stroke:#ffd857;stroke-miterlimit:10;stroke-width:2px;}.cls-4{clip-path:url(#clip-path-2);}.cls-5{clip-path:url(#clip-path-3);}</style><clipPath id="clip-path" transform="translate(-12.87 -95.5)"><rect class="cls-1" x="5" y="42" width="212.17" height="271.73"/></clipPath><clipPath id="clip-path-2" transform="translate(-12.87 -95.5)"><rect class="cls-1" x="239.07" y="88.07" width="175.81" height="224.68"/></clipPath><clipPath id="clip-path-3" transform="translate(-12.87 -95.5)"><rect class="cls-1" x="434.29" y="136.65" width="147.63" height="176.09"/></clipPath></defs><title>matri</title><g class="cls-2"><path class="cls-3" d="M107.56,95.15" transform="translate(-12.87 -95.5)"/><path class="cls-3" d="M190.16,221a201.08,201.08,0,0,0,7.76,24.36,12.21,12.21,0,0,1,.8,3.09l1.77,11.36c.1.6.22,1.2.38,1.79l.13.49a17.9,17.9,0,0,1,.57,3.71h0a17.4,17.4,0,0,0,.19,1.91L206,294.91c3.88,30.95-4.46,80.37-10.75,110.92l-5.44,25.95c-4.12,20-17.12,22.31-37.27,25.48-65.83,10.34-97.89,2.3-112.92-8.6a35.43,35.43,0,0,1-13.93-21.92l-3.32-17C16.82,381,11.51,331.06,15,302l4.91-38h-.08l.14-.47,1.39-10.74a16.71,16.71,0,0,1,1.45-5.14,175.88,175.88,0,0,0,8.94-23.67L42,189.55l5.64-41A60.3,60.3,0,0,1,107.34,96.5h9.25a60.3,60.3,0,0,1,59.69,51.77l5.57,39a40.39,40.39,0,0,0,.89,4.51Z" transform="translate(-12.87 -95.5)"/><path class="cls-3" d="M64.12,155.09c0,30,14.24,51.39,51.75,51.39,44.7,0,50.8-21.43,50.8-51.39,0-33.11-22.22-54.24-50.8-54.24S64.12,117.47,64.12,155.09Z" transform="translate(-12.87 -95.5)"/><path class="cls-3" d="M166.27,168.42a24.75,24.75,0,0,0-5.38-9.17,26.16,26.16,0,0,0-7.91-5.54c-7.61-3.92-12.77-9-17.89-14.09a63.69,63.69,0,0,1-13.45-19.94h-.15c-5.16,9.24-11,14.15-15.51,16.94-4.91,3-11.46,5.6-23.42,10.28-6.49,2.54-9,3.32-11.56,6-4.87,5.07-5.58,12.14-5.53,16.77" transform="translate(-12.87 -95.5)"/><path class="cls-3" d="M110.09,104.17A86.16,86.16,0,0,1,73.85,127" transform="translate(-12.87 -95.5)"/><path class="cls-3" d="M112.15,122.69A73.54,73.54,0,0,1,68,148.17" transform="translate(-12.87 -95.5)"/><path class="cls-3" d="M131.14,105.76c5.28,9.6,11.19,15,15.67,18.2s8.75,5,13.13,10.28A33.75,33.75,0,0,1,166,145.72" transform="translate(-12.87 -95.5)"/><path class="cls-3" d="M108.75,149.63a24.46,24.46,0,0,0-9-3.08,24.9,24.9,0,0,0-14.13,2.37" transform="translate(-12.87 -95.5)"/><path class="cls-3" d="M124.65,152.24a17,17,0,0,1,7.83-3.91,17.36,17.36,0,0,1,11.87,2" transform="translate(-12.87 -95.5)"/><path class="cls-3" d="M127.1,167.63a9.86,9.86,0,0,1,19.63,1.82" transform="translate(-12.87 -95.5)"/><path class="cls-3" d="M132.4,171a12.26,12.26,0,0,0,7.52,1.35,11.92,11.92,0,0,0,4.51-1.66" transform="translate(-12.87 -95.5)"/><path class="cls-3" d="M135.09,159.17a14.38,14.38,0,0,0,.64-2.06,15.25,15.25,0,0,0,.39-3.48" transform="translate(-12.87 -95.5)"/><path class="cls-3" d="M136.36,159a6.37,6.37,0,0,0,1.66-2.14,6.51,6.51,0,0,0,.64-2.77" transform="translate(-12.87 -95.5)"/><path class="cls-3" d="M138.8,159.19a8.94,8.94,0,0,1,1.83-2.63c.6-.53,1.07-.74,1.35-1.35a2.81,2.81,0,0,0,0-2.06" transform="translate(-12.87 -95.5)"/><path class="cls-3" d="M141.18,159.9a10.34,10.34,0,0,1,1.59-2.63,8.54,8.54,0,0,1,2.61-2.06" transform="translate(-12.87 -95.5)"/><path class="cls-3" d="M142.57,160.88a9.67,9.67,0,0,0,3.68-1.63,7.92,7.92,0,0,0,2.14-2.54" transform="translate(-12.87 -95.5)"/><path class="cls-3" d="M144.75,163a9.45,9.45,0,0,0,3.16-1.26,9.6,9.6,0,0,0,3.25-3.48" transform="translate(-12.87 -95.5)"/><path class="cls-3" d="M145.78,164.78a10.71,10.71,0,0,0,3.08-.95,11.22,11.22,0,0,0,3.64-2.76" transform="translate(-12.87 -95.5)"/><path class="cls-3" d="M146.52,166.75a11.35,11.35,0,0,0,4.8-1.49,10.82,10.82,0,0,0,3.4-3.25" transform="translate(-12.87 -95.5)"/><path class="cls-3" d="M146.61,168.68a8.77,8.77,0,0,0,4.78.22,9.89,9.89,0,0,0,5.78-3.88" transform="translate(-12.87 -95.5)"/><path class="cls-3" d="M145.86,172.38a5.72,5.72,0,0,1,1.5.87,5.59,5.59,0,0,1,1.19,1.35" transform="translate(-12.87 -95.5)"/><path class="cls-3" d="M144.27,173.8a3,3,0,0,1,.72.16,3.23,3.23,0,0,1,1.66,1.58" transform="translate(-12.87 -95.5)"/><ellipse class="cls-3" cx="125.57" cy="70.54" rx="6.85" ry="6.62"/><ellipse class="cls-3" cx="126.47" cy="67.94" rx="3.78" ry="3.88"/><path class="cls-3" d="M105.9,165a9.86,9.86,0,0,0-19.62,1.82" transform="translate(-12.87 -95.5)"/><path class="cls-3" d="M100.6,168.42a12.33,12.33,0,0,1-7.52,1.35,11.92,11.92,0,0,1-4.51-1.66" transform="translate(-12.87 -95.5)"/><path class="cls-3" d="M97.91,156.56a14.95,14.95,0,0,1-1-5.54" transform="translate(-12.87 -95.5)"/><path class="cls-3" d="M96.64,156.4a6.41,6.41,0,0,1-2.29-4.91" transform="translate(-12.87 -95.5)"/><path class="cls-3" d="M94.2,156.57a9,9,0,0,0-1.83-2.63c-.6-.52-1.07-.74-1.35-1.34a2.86,2.86,0,0,1,0-2.06" transform="translate(-12.87 -95.5)"/><path class="cls-3" d="M91.82,157.29a10.34,10.34,0,0,0-1.59-2.63,8.39,8.39,0,0,0-2.61-2.06" transform="translate(-12.87 -95.5)"/><path class="cls-3" d="M90.43,158.27a9.57,9.57,0,0,1-3.68-1.64,8,8,0,0,1-2.14-2.53" transform="translate(-12.87 -95.5)"/><path class="cls-3" d="M88.25,160.43a9.45,9.45,0,0,1-3.16-1.26,9.61,9.61,0,0,1-3.25-3.49" transform="translate(-12.87 -95.5)"/><path class="cls-3" d="M87.22,162.17a10.71,10.71,0,0,1-3.08-.95,11.2,11.2,0,0,1-3.64-2.77" transform="translate(-12.87 -95.5)"/><path class="cls-3" d="M86.48,164.14a11.47,11.47,0,0,1-4.79-1.49,10.77,10.77,0,0,1-3.41-3.25" transform="translate(-12.87 -95.5)"/><path class="cls-3" d="M86.39,166.07a8.87,8.87,0,0,1-4.78.22,9.93,9.93,0,0,1-5.78-3.88" transform="translate(-12.87 -95.5)"/><path class="cls-3" d="M87.15,169.77a5.6,5.6,0,0,0-1.51.87A5.46,5.46,0,0,0,84.46,172" transform="translate(-12.87 -95.5)"/><path class="cls-3" d="M88.73,171.19a3,3,0,0,0-.71.16,3.18,3.18,0,0,0-1.67,1.58" transform="translate(-12.87 -95.5)"/><ellipse class="cls-3" cx="81.68" cy="67.93" rx="6.85" ry="6.62"/><ellipse class="cls-3" cx="83.51" cy="65.57" rx="3.78" ry="3.88"/><ellipse class="cls-3" cx="101.09" cy="81.39" rx="0.87" ry="1.03"/><ellipse class="cls-3" cx="106" cy="81.15" rx="1.19" ry="1.27"/><ellipse class="cls-3" cx="79.61" cy="89.94" rx="8.03" ry="8.31"/><ellipse class="cls-3" cx="128.47" cy="91.68" rx="8.39" ry="9.1"/><path class="cls-3" d="M106.45,188.28a9.15,9.15,0,0,0,3.4,0,10.84,10.84,0,0,0,3.72-2.13c.72-.63,1-1.09,1.66-1.11.86,0,1.13.76,2,.71s1-.88,1.9-1,1.09.46,2.38,1.19c2.33,1.32,3.94.88,4.66,2.22a1.09,1.09,0,0,1,.16.87c-.21.57-1.09.48-1.82.95-1,.61-.82,1.67-1.34,2.76-.92,1.93-3.43,3-5.46,3.09-.2,0-3.47.15-5.38-2.06-1.28-1.47-.73-2.59-2.14-3.87C108.61,188.44,106.42,188.44,106.45,188.28Z" transform="translate(-12.87 -95.5)"/><path class="cls-3" d="M121.72,189.43c0-.76-2-.91-4.55-.91s-4.55.15-4.55.91,2,1.86,4.55,1.86S121.72,190.2,121.72,189.43Z" transform="translate(-12.87 -95.5)"/><path class="cls-3" d="M133.12,224.84a24.28,24.28,0,0,1,8.78,6.41,21.06,21.06,0,0,1,5.38,11.31c1,8.14-3.78,14.17-4.83,15.43a29.54,29.54,0,0,1-23-20.65" transform="translate(-12.87 -95.5)"/><path class="cls-3" d="M125.52,235.44s8.39,10.37,8.55,10.84" transform="translate(-12.87 -95.5)"/><path class="cls-3" d="M103.76,224.44a.11.11,0,0,0,0-.05,3.94,3.94,0,0,1-.23-.46c-.85-1.88-4.28,2.26-6.5,4.75C91.35,235,91.83,243.11,92,246c.19,3.13.4,6.7,2.62,8,.89.5,2,.59,7.86-1.66,5.48-2.13,8.22-3.19,9.8-4.63a18.52,18.52,0,0,0,5.36-10.21l-.11-.08C110.59,236.85,105.15,230.81,103.76,224.44Z" transform="translate(-12.87 -95.5)"/><path class="cls-3" d="M108.83,208.46c-.46.44-7,7.07-5.08,15.93a.11.11,0,0,1,0,.05c1.39,6.37,6.83,12.41,13.78,12.94.31,0,.62,0,.94,0,8.37,0,14.42-8,15.19-15.35.85-8.13-4.86-13.9-5.7-14.72" transform="translate(-12.87 -95.5)"/><path class="cls-3" d="M130.19,231.09s9.34,9.57,9.81,11.08" transform="translate(-12.87 -95.5)"/><path class="cls-3" d="M107.56,231.76A26.29,26.29,0,0,0,98.78,241" transform="translate(-12.87 -95.5)"/><path class="cls-3" d="M111,235.09a21.1,21.1,0,0,1-2.61,4.74,21.45,21.45,0,0,1-6,5.58" transform="translate(-12.87 -95.5)"/><path class="cls-3" d="M84.77,214.79a75.49,75.49,0,0,1-26.35-12.34" transform="translate(-12.87 -95.5)"/><path class="cls-3" d="M79.55,219.3a36.22,36.22,0,0,1-22.79-3.8" transform="translate(-12.87 -95.5)"/><path class="cls-3" d="M150.76,211.7A23.61,23.61,0,0,0,170,203.16" transform="translate(-12.87 -95.5)"/><path class="cls-3" d="M152.42,216.93a29.65,29.65,0,0,0,22.32-4.51" transform="translate(-12.87 -95.5)"/><path class="cls-3" d="M23.21,246.76c5.41-1.75,11.21-3.37,17.41-4.75a194.87,194.87,0,0,1,51.27-4.43" transform="translate(-12.87 -95.5)"/><path class="cls-3" d="M144.91,235.84c8.42.08,17.88.46,27.37,1.26,8.14.69,15.85,1.61,23.11,2.69" transform="translate(-12.87 -95.5)"/><polyline class="cls-3" points="72.02 141.96 71.3 191.93 140.85 191.21 137.53 140.42"/><ellipse class="cls-3" cx="93.32" cy="161.57" rx="2.49" ry="2.4"/><ellipse class="cls-3" cx="116.82" cy="163.06" rx="2.49" ry="2.4"/><ellipse class="cls-3" cx="112.67" cy="167.39" rx="2.49" ry="2.4"/><ellipse class="cls-3" cx="105.96" cy="169.7" rx="2.68" ry="2.58"/><ellipse class="cls-3" cx="98.31" cy="167.51" rx="2.86" ry="2.76"/><circle class="cls-3" cx="108.45" cy="180.22" r="3.32"/><circle class="cls-3" cx="115.89" cy="176.02" r="2.85"/><circle class="cls-3" cx="122.93" cy="169.77" r="2.14"/><circle class="cls-3" cx="87.48" cy="170.09" r="2.14"/><circle class="cls-3" cx="126.18" cy="165.1" r="1.74"/><circle class="cls-3" cx="83.85" cy="163.92" r="1.74"/><circle class="cls-3" cx="99.51" cy="179.11" r="2.85"/><circle class="cls-3" cx="92.79" cy="174.68" r="2.45"/><path class="cls-3" d="M98.78,287.66a26,26,0,0,0-9.26,14.72c-2.73,13.35,9.5,23.1,10,23.5-1.5,1.51-9.45,8.4-9.73,19.23-.33,12.72,9.16,20.68,10.44,21.84-6.24,4.89-10.4,12.61-9.26,20.17,1.4,9.2,9.06,14,10.21,14.72-6.68,3.94-11,11.29-10.21,18.75,1,10,9.76,14.83,10.45,15.19a13.72,13.72,0,0,0,1.42,26.35Z" transform="translate(-12.87 -95.5)"/><path class="cls-3" d="M141,287.19c8.64,7.87,10.17,13,10,17.09-.32,7.94-7.44,17.67-7.51,17.8h0a27.57,27.57,0,0,1,7.3,15c1.92,12.85-5.77,22.2-6.67,23.26A28.46,28.46,0,0,1,151,377.63a29.17,29.17,0,0,1-6.88,20.17,20.88,20.88,0,0,1,7.09,13.77c1,10.83-6.68,17.69-7.09,18a20.83,20.83,0,0,1,5,13.3,21.15,21.15,0,0,1-7.92,16.37Z" transform="translate(-12.87 -95.5)"/><path class="cls-3" d="M114.19,297.44c1.91,4.71,1.55,9.29-.79,10.24s-5.78-2.11-7.68-6.82.79-11.66.79-11.66S112.29,292.73,114.19,297.44Z" transform="translate(-12.87 -95.5)"/><path class="cls-3" d="M106.51,289.2S113,307.13,113,307.84" transform="translate(-12.87 -95.5)"/><path class="cls-3" d="M126,297.36c-2.56,4.42-2.87,9-.7,10.29s6-1.31,8.57-5.73.7-10.29.7-10.29S128.53,292.93,126,297.36Z" transform="translate(-12.87 -95.5)"/><line class="cls-3" x1="112.17" y1="211.94" x2="121.67" y2="196.13"/><path class="cls-3" d="M130.19,321.77h-.08a3.07,3.07,0,0,0-2.93,3.12,3.16,3.16,0,0,0,.7,2,3,3,0,0,0,2.31,1.13,3.13,3.13,0,0,0,0-6.25Z" transform="translate(-12.87 -95.5)"/><ellipse class="cls-3" cx="121.75" cy="223.46" rx="1.82" ry="1.94"/><ellipse class="cls-3" cx="124.16" cy="218.16" rx="1.31" ry="1.23"/><path class="cls-3" d="M119.71,308.79a10.83,10.83,0,0,0-10.57,11.08,11.3,11.3,0,0,0,2.41,7,2.85,2.85,0,0,1,3.48,2.9,10.15,10.15,0,0,0,4.68,1.14,10.38,10.38,0,0,0,8.17-4.05,3.16,3.16,0,0,1-.7-2,3.07,3.07,0,0,1,2.93-3.12,11.88,11.88,0,0,0,.16-1.9A10.83,10.83,0,0,0,119.71,308.79Z" transform="translate(-12.87 -95.5)"/><path class="cls-3" d="M115,329.8a2.85,2.85,0,0,0-3.48-2.9,3,3,0,0,0-2.27,3,2.89,2.89,0,1,0,5.76,0S115,329.84,115,329.8Z" transform="translate(-12.87 -95.5)"/><ellipse class="cls-3" cx="94.57" cy="229.46" rx="2.02" ry="1.93"/><ellipse class="cls-3" cx="92.22" cy="224.18" rx="1.69" ry="1.57"/><path class="cls-3" d="M131.61,377.79h-.08a3.06,3.06,0,0,0-2.92,3.12,3.21,3.21,0,0,0,.69,2,3,3,0,0,0,2.31,1.13,3.13,3.13,0,0,0,0-6.25Z" transform="translate(-12.87 -95.5)"/><ellipse class="cls-3" cx="123.17" cy="279.48" rx="1.82" ry="1.94"/><ellipse class="cls-3" cx="125.58" cy="274.18" rx="1.31" ry="1.23"/><path class="cls-3" d="M121.13,364.81a10.83,10.83,0,0,0-10.56,11.08,11.35,11.35,0,0,0,2.4,7,3.08,3.08,0,0,1,.61-.07,3,3,0,0,1,2.88,3,10.11,10.11,0,0,0,4.67,1.14,10.38,10.38,0,0,0,8.17-4,3.21,3.21,0,0,1-.69-2,3.06,3.06,0,0,1,2.92-3.12,11.11,11.11,0,0,0-10.4-13Z" transform="translate(-12.87 -95.5)"/><path class="cls-3" d="M116.46,385.82a3,3,0,0,0-2.88-3,2.91,2.91,0,0,0-2.88,3.09,2.89,2.89,0,1,0,5.76,0Z" transform="translate(-12.87 -95.5)"/><ellipse class="cls-3" cx="95.99" cy="285.48" rx="2.02" ry="1.93"/><ellipse class="cls-3" cx="93.65" cy="280.2" rx="1.69" ry="1.57"/><path class="cls-3" d="M124.74,345c-4.37,6.75-6.72,13.91-3.5,16s10.34-1.69,14.71-8.44,1.13-19.8,1.13-19.8S129.11,338.21,124.74,345Z" transform="translate(-12.87 -95.5)"/><path class="cls-3" d="M136.91,332.76s-2.29,25-16,28.09" transform="translate(-12.87 -95.5)"/><path class="cls-3" d="M105.51,354c3.78,5.87,8.58,9.51,10.71,8.13s2.21-7.24-1.57-13.1S103,339,103,339,101.73,348.12,105.51,354Z" transform="translate(-12.87 -95.5)"/><path class="cls-3" d="M103,339s11.37,12.22,12.88,23.22" transform="translate(-12.87 -95.5)"/><path class="cls-3" d="M125.69,395.92c-4.37,6.74-6.72,13.91-3.5,16s10.34-1.68,14.71-8.43,1.13-19.8,1.13-19.8S130.06,389.17,125.69,395.92Z" transform="translate(-12.87 -95.5)"/><path class="cls-3" d="M137.86,383.72s-2.29,25-16,28.09" transform="translate(-12.87 -95.5)"/><path class="cls-3" d="M106.46,404.94c3.78,5.86,8.58,9.5,10.71,8.13s2.21-7.24-1.57-13.11-11.66-10-11.66-10S102.67,399.07,106.46,404.94Z" transform="translate(-12.87 -95.5)"/><path class="cls-3" d="M103.94,389.93s11.37,12.23,12.88,23.22" transform="translate(-12.87 -95.5)"/><path class="cls-3" d="M131.61,431.75h-.08a3.07,3.07,0,0,0-2.92,3.12,3.21,3.21,0,0,0,.69,2,3,3,0,0,0,2.31,1.13,3.13,3.13,0,0,0,0-6.25Z" transform="translate(-12.87 -95.5)"/><ellipse class="cls-3" cx="123.17" cy="333.44" rx="1.82" ry="1.94"/><ellipse class="cls-3" cx="125.11" cy="328.61" rx="1.31" ry="1.23"/><path class="cls-3" d="M121.13,418.77a10.83,10.83,0,0,0-10.56,11.08,11.35,11.35,0,0,0,2.4,7,3.08,3.08,0,0,1,.61-.07,3,3,0,0,1,2.88,3,10.11,10.11,0,0,0,4.67,1.15,10.36,10.36,0,0,0,8.17-4.06,3.21,3.21,0,0,1-.69-2,3.07,3.07,0,0,1,2.92-3.12,11.11,11.11,0,0,0-10.4-13Z" transform="translate(-12.87 -95.5)"/><path class="cls-3" d="M116.46,439.78a3,3,0,0,0-2.88-3,2.91,2.91,0,0,0-2.88,3.09,2.89,2.89,0,1,0,5.76,0Z" transform="translate(-12.87 -95.5)"/><ellipse class="cls-3" cx="95.52" cy="339.44" rx="2.02" ry="1.93"/><ellipse class="cls-3" cx="92.7" cy="334.16" rx="1.69" ry="1.57"/><path class="cls-3" d="M126.71,448.15c-4.26,3.7-7.24,8.07-5.47,10.1s7.29.88,11.55-2.82,4.61-13.12,4.61-13.12S131,444.45,126.71,448.15Z" transform="translate(-12.87 -95.5)"/><path class="cls-3" d="M137.28,442.3s-6.41,16.4-16.23,15.82" transform="translate(-12.87 -95.5)"/><path class="cls-3" d="M109,454c3.5,3.42,7.35,5.17,8.59,3.9s.39-5.3-3.11-8.72-9.54-5.05-9.54-5.05S105.5,450.6,109,454Z" transform="translate(-12.87 -95.5)"/><path class="cls-3" d="M104.94,444.15s9.69,6.59,12.43,13.88" transform="translate(-12.87 -95.5)"/><ellipse class="cls-3" cx="138.92" cy="224.92" rx="3.88" ry="4.04"/><ellipse class="cls-3" cx="137.73" cy="263.14" rx="2.53" ry="2.69"/><ellipse class="cls-3" cx="138.68" cy="300.33" rx="2.69" ry="3.32"/><ellipse class="cls-3" cx="137.73" cy="332.77" rx="2.85" ry="2.69"/><ellipse class="cls-3" cx="75.85" cy="338.86" rx="2.53" ry="3.09"/><circle class="cls-3" cx="74.11" cy="304.12" r="3.01"/><ellipse class="cls-3" cx="73.56" cy="271.45" rx="4.04" ry="3.88"/><ellipse class="cls-3" cx="73.72" cy="230.3" rx="3.88" ry="3.72"/><circle class="cls-3" cx="57.02" cy="161.54" r="3.48"/><circle class="cls-3" cx="151.34" cy="156.95" r="3.01"/><circle class="cls-3" cx="151.97" cy="202.69" r="3.16"/><circle class="cls-3" cx="67.78" cy="211.39" r="2.22"/><circle class="cls-3" cx="42.15" cy="251.74" r="2.69"/><circle class="cls-3" cx="60.19" cy="282.13" r="3.16"/><circle class="cls-3" cx="39.3" cy="320.27" r="2.69"/><circle class="cls-3" cx="61.61" cy="351.28" r="2.69"/><circle class="cls-3" cx="22.68" cy="344.16" r="2.22"/><circle class="cls-3" cx="144.06" cy="351.28" r="2.22"/><circle class="cls-3" cx="167.16" cy="316.63" r="2.37"/><circle class="cls-3" cx="150.86" cy="276.27" r="3.48"/><circle class="cls-3" cx="170.17" cy="241.62" r="2.37"/><path class="cls-3" d="M52.73,240A91,91,0,0,1,57,276a97.81,97.81,0,0,1-18.52,49.38" transform="translate(-12.87 -95.5)"/><path class="cls-3" d="M42.2,319.87a158.4,158.4,0,0,1,3,25.79,165,165,0,0,1-1,24.06A16,16,0,0,0,33.82,367a15.72,15.72,0,0,0-8.39,3.48,43.64,43.64,0,0,1-10.6-18.68" transform="translate(-12.87 -95.5)"/><ellipse class="cls-3" cx="11.76" cy="176.89" rx="0.95" ry="2.53"/><ellipse class="cls-3" cx="28.54" cy="162.49" rx="1.74" ry="2.85"/><ellipse class="cls-3" cx="27.83" cy="189.32" rx="1.82" ry="2.45"/><ellipse class="cls-3" cx="23.71" cy="214" rx="1.5" ry="1.82"/><ellipse class="cls-3" cx="9.94" cy="204.35" rx="1.03" ry="2.93"/><path class="cls-3" d="M28.2,327.46c-.15-2.84,1.06-5.47,3.08-6.49,2.93-1.46,8.79.82,9.86,6.39" transform="translate(-12.87 -95.5)"/><path class="cls-3" d="M17.6,330.05c-.79-3.38.39-7.3,2.37-8.2,2.47-1.13,6.93.83,8.23,5.61" transform="translate(-12.87 -95.5)"/><path class="cls-3" d="M13.72,324.54a1.89,1.89,0,0,1,1.34-.32c1.33.22,2.51,3,2.54,5.83" transform="translate(-12.87 -95.5)"/><path class="cls-3" d="M13.76,331.62a55.49,55.49,0,0,1,13.49-3.84,58.55,58.55,0,0,1,16.14-.32" transform="translate(-12.87 -95.5)"/><path class="cls-3" d="M14,336.86a88.6,88.6,0,0,1,30.38-2.37" transform="translate(-12.87 -95.5)"/><path class="cls-3" d="M16.11,355.79A45.46,45.46,0,0,1,24,353.24a47.47,47.47,0,0,1,21.25.18" transform="translate(-12.87 -95.5)"/><path class="cls-3" d="M19.79,363.27a26.87,26.87,0,0,1,9.79-4.69,27.34,27.34,0,0,1,15.43.77" transform="translate(-12.87 -95.5)"/><path class="cls-3" d="M19,335.73l-4.39,10.86" transform="translate(-12.87 -95.5)"/><line class="cls-3" x1="11.07" y1="239.4" x2="2.82" y2="259.16"/><line class="cls-3" x1="18.19" y1="238.63" x2="9.11" y2="258.33"/><line class="cls-3" x1="25.61" y1="238.61" x2="15.88" y2="257.09"/><line class="cls-3" x1="32.2" y1="247.2" x2="23.62" y2="256.7"/><line class="cls-3" x1="1.64" y1="250.41" x2="5.76" y2="259.31"/><line class="cls-3" x1="1.64" y1="241.24" x2="15.17" y2="257.03"/><line class="cls-3" x1="8.84" y1="239.72" x2="26.95" y2="256.89"/><line class="cls-3" x1="18.73" y1="238.77" x2="32.35" y2="250.44"/><path class="cls-3" d="M25.43,370.51s-.65,5.93-.3,7.65,5.46,18.58,6.83,19.47,2.4,1.13,2.93.78c.34-.23-1.28-4.08-.57-2.31-.36-.89-2.66-5.83-2.48-7.73a36,36,0,0,0-.36-5.82" transform="translate(-12.87 -95.5)"/><path class="cls-3" d="M33.78,398.56s.91,2.57,2.81,3.2,2.76.75,2.69.16a53.84,53.84,0,0,0-1.82-5.54A42.17,42.17,0,0,1,36,392c-.43-1.82-1-8.51-1-8.51" transform="translate(-12.87 -95.5)"/><path class="cls-3" d="M39,402.43a2.28,2.28,0,0,0,1.62,1.47c1.23.23,2.57.55,2.69-.16a13.25,13.25,0,0,0-1.11-4.83,72.78,72.78,0,0,1-2.61-10.17c-.16-1.54-.59-6.33-.59-6.33" transform="translate(-12.87 -95.5)"/><path class="cls-3" d="M44.81,382.89s1.35,2.06,2.1,3.28,4.87,6.89,6.33,6.65,2.45-.44,2.14-1.11-3.92-7.87-4.43-8.86-2.5-7.44-4.36-9.89a26.43,26.43,0,0,1-2.31-3.38" transform="translate(-12.87 -95.5)"/><path class="cls-3" d="M43.31,403.74a3.1,3.1,0,0,0,1.5,1.26c.84.2,1.55.24,1.94-.35s-.31-4.71-.63-6.85-.91-3.16-.91-4.51.36-7.51-.28-9l-.12-1.38" transform="translate(-12.87 -95.5)"/><path class="cls-3" d="M179,237.58a92.13,92.13,0,0,0,15.9,80" transform="translate(-12.87 -95.5)"/><path class="cls-3" d="M191.71,312.94a132.45,132.45,0,0,0,.35,54,6.91,6.91,0,0,1,5.58-1.9,6.73,6.73,0,0,1,4.28,2.49" transform="translate(-12.87 -95.5)"/><path class="cls-3" d="M189.14,385a12.51,12.51,0,0,0-1.19,3.72s-3.09,16-2.61,16.69,2-.12,2.29-.63,2.42-10.41,2.65-10.92,1-5.82,1-5.82" transform="translate(-12.87 -95.5)"/><path class="cls-3" d="M191.91,367.1s-3.17,8.87-3.56,10.61a25.94,25.94,0,0,1-3.72,7.83c-1.67,2.14-3,3.4-2.38,4s4.67-.95,5.15-1.9a22.64,22.64,0,0,1,1.74-2.61" transform="translate(-12.87 -95.5)"/><path class="cls-3" d="M187.63,404.73a3.41,3.41,0,0,0,1.74-.6,4.11,4.11,0,0,0,1.47-2.53c.5-2.14,1.77-7.13,3.4-13.84" transform="translate(-12.87 -95.5)"/><path class="cls-3" d="M190.64,402a2.3,2.3,0,0,0,1.82-.79c.55-.83,4.11-14.52,4.11-14.52" transform="translate(-12.87 -95.5)"/><path class="cls-3" d="M194,396.14s.67,2.06,1.51.32,3.16-8.7,3.16-8.7" transform="translate(-12.87 -95.5)"/><ellipse class="cls-3" cx="173.85" cy="155.13" rx="1.66" ry="3.56"/><ellipse class="cls-3" cx="186.31" cy="173.65" rx="0.71" ry="2.73"/><ellipse class="cls-3" cx="178.18" cy="189.61" rx="1.01" ry="2.2"/><ellipse class="cls-3" cx="190.41" cy="197.74" rx="0.53" ry="2.26"/><ellipse class="cls-3" cx="183.88" cy="209.97" rx="1.36" ry="2.14"/><path class="cls-3" d="M190.22,322.14a6.13,6.13,0,0,1,5.29-6,5.44,5.44,0,0,1,5.46,4.58,4.74,4.74,0,0,1,2.84-3.16,4.4,4.4,0,0,1,3.09.24" transform="translate(-12.87 -95.5)"/><path class="cls-3" d="M190,322.16a23.24,23.24,0,0,1,16.61,1.35" transform="translate(-12.87 -95.5)"/><path class="cls-3" d="M189.49,327.11a31.24,31.24,0,0,1,8-.75,30.86,30.86,0,0,1,9,1.66" transform="translate(-12.87 -95.5)"/><path class="cls-3" d="M189.45,349.8a29.82,29.82,0,0,1,7.66-.36,30.44,30.44,0,0,1,7.18,1.48" transform="translate(-12.87 -95.5)"/><path class="cls-3" d="M190.28,356.92a12.78,12.78,0,0,1,13.12.89" transform="translate(-12.87 -95.5)"/><line class="cls-3" x1="176.31" y1="239.73" x2="183.28" y2="253.76"/><line class="cls-3" x1="179.78" y1="231.09" x2="188.68" y2="254.65"/><line class="cls-3" x1="186.61" y1="230.86" x2="192.07" y2="250.02"/><line class="cls-3" x1="191.59" y1="231.92" x2="193.02" y2="240.11"/><line class="cls-3" x1="184.95" y1="230.74" x2="176.19" y2="242.22"/><line class="cls-3" x1="191.12" y1="231.86" x2="177.41" y2="254.06"/><line class="cls-3" x1="193.14" y1="238.51" x2="185.24" y2="254"/><line class="cls-3" x1="192.01" y1="249.25" x2="190.05" y2="254.83"/></g><g class="cls-4"><path class="cls-3" d="M388.94,235.55a157.91,157.91,0,0,0,6.06,19,9.49,9.49,0,0,1,.63,2.41l1.38,8.86a13.23,13.23,0,0,0,.3,1.39l.1.38a13.56,13.56,0,0,1,.44,2.9h0A12.33,12.33,0,0,0,398,272l3.29,21.21c2.63,20.91-2.24,52.63-6.78,76.23a138.23,138.23,0,0,1-5.17,19.29L385.44,400c-3.21,15.59-12.88,17.41-28.61,19.88-37.34,5.88-59.13,4.49-71.23.79-11.68-3.58-17.58-12-19.92-24l-2.07-10.58c-4.31-22.46-14-64.62-11.31-87.34l3.36-29.66h-.07l.11-.37,1.08-8.37a13.2,13.2,0,0,1,1.14-4,140.1,140.1,0,0,0,7.43-18.46l5.2-21.72,4.4-32a47,47,0,0,1,46.59-40.63h10c22.44,0,43.4,18.16,46.57,40.38l4.36,30.42a34.74,34.74,0,0,0,.69,3.52Z" transform="translate(-12.87 -95.5)"/><path class="cls-3" d="M288.8,190.47c0,24,3.48,43.09,39.48,43.39,37.15.31,38.07-19.44,38.07-43.41s-16.29-43.4-38.09-43.39S288.8,166.5,288.8,190.47Z" transform="translate(-12.87 -95.5)"/><path class="cls-3" d="M288.8,195.5a41.22,41.22,0,0,1,6.71-5.61c6.87-4.47,12.57-5.49,15.63-6.6,5.43-2,12.31-7.77,17.59-25.36a28.52,28.52,0,0,0,2.66,10.54,30.15,30.15,0,0,0,6.71,9c7,6.55,11.57,5.36,18.52,10.76a36.71,36.71,0,0,1,9.5,11.75" transform="translate(-12.87 -95.5)"/><path class="cls-3" d="M302.77,186.8a15.47,15.47,0,0,1,19.29,1.07" transform="translate(-12.87 -95.5)"/><path class="cls-3" d="M334.63,188.72a15,15,0,0,1,19.53,1.46" transform="translate(-12.87 -95.5)"/><path class="cls-3" d="M323.14,202.15a9.36,9.36,0,0,0-18.29-2.08,6.5,6.5,0,0,1-3.55-.54A6.67,6.67,0,0,1,298,195.9" transform="translate(-12.87 -95.5)"/><path class="cls-3" d="M321.73,203.19a21.51,21.51,0,0,0-4.51.46c-2.27.49-3,1-4.17,1.16-1.57.18-3.9-.4-7.12-4" transform="translate(-12.87 -95.5)"/><path class="cls-3" d="M306.16,197.87a10.73,10.73,0,0,1-5.32-4.8" transform="translate(-12.87 -95.5)"/><path class="cls-3" d="M308.19,195.26A4.92,4.92,0,0,1,305,194a4.82,4.82,0,0,1-1.45-2.49" transform="translate(-12.87 -95.5)"/><path class="cls-3" d="M309.87,194.22a4.1,4.1,0,0,1-2-1.1,4.25,4.25,0,0,1-1.16-2.31" transform="translate(-12.87 -95.5)"/><path class="cls-3" d="M312.41,193.35a4.47,4.47,0,0,1-2-1.15,4.57,4.57,0,0,1-1.22-2.32" transform="translate(-12.87 -95.5)"/><path class="cls-3" d="M314.61,193.12a3.15,3.15,0,0,1-2.43-3.47" transform="translate(-12.87 -95.5)"/><path class="cls-3" d="M306.4,201.46a3.46,3.46,0,0,1-3,2.95" transform="translate(-12.87 -95.5)"/><path class="cls-3" d="M307.9,203a2.35,2.35,0,0,1-.63,2,2.32,2.32,0,0,1-1.68.63" transform="translate(-12.87 -95.5)"/><ellipse class="cls-3" cx="300.87" cy="103.55" rx="6.25" ry="5.41"/><ellipse class="cls-3" cx="301.91" cy="101.62" rx="3.82" ry="3.3"/><path class="cls-3" d="M333.63,202.61a9.36,9.36,0,0,1,18.29-2.09,6.49,6.49,0,0,0,3.55-.54,6.74,6.74,0,0,0,3.32-3.63" transform="translate(-12.87 -95.5)"/><path class="cls-3" d="M335,203.65a21.53,21.53,0,0,1,4.52.46c2.26.48,3,1,4.16,1.16,1.57.17,3.91-.41,7.12-4" transform="translate(-12.87 -95.5)"/><path class="cls-3" d="M350.61,198.32a10.63,10.63,0,0,0,5.32-4.8" transform="translate(-12.87 -95.5)"/><path class="cls-3" d="M348.58,195.72a5,5,0,0,0,3.19-1.27,4.93,4.93,0,0,0,1.44-2.49" transform="translate(-12.87 -95.5)"/><path class="cls-3" d="M346.9,194.68a4.1,4.1,0,0,0,2-1.1,4.27,4.27,0,0,0,1.16-2.32" transform="translate(-12.87 -95.5)"/><path class="cls-3" d="M344.36,193.81a4.37,4.37,0,0,0,2-1.16,4.52,4.52,0,0,0,1.22-2.31" transform="translate(-12.87 -95.5)"/><path class="cls-3" d="M342.16,193.58a3.15,3.15,0,0,0,2.43-3.47" transform="translate(-12.87 -95.5)"/><path class="cls-3" d="M350.38,201.91a3.5,3.5,0,0,0,1,2,3.44,3.44,0,0,0,2,.92" transform="translate(-12.87 -95.5)"/><path class="cls-3" d="M348.87,203.47a2.41,2.41,0,0,0,.64,2,2.33,2.33,0,0,0,1.68.64" transform="translate(-12.87 -95.5)"/><ellipse class="cls-3" cx="330.15" cy="104.01" rx="6.25" ry="5.41"/><ellipse class="cls-3" cx="331.43" cy="102.54" rx="3.82" ry="3.3"/><ellipse class="cls-3" cx="317.75" cy="111.55" rx="0.77" ry="0.66"/><ellipse class="cls-3" cx="313.89" cy="111.7" rx="0.73" ry="0.76"/><path class="cls-3" d="M319.83,215.69c.13-1.13,2.4-1.71,3.93-1.68a6.36,6.36,0,0,1,3.65,1.33,3.16,3.16,0,0,1,2.31-2.14,3.29,3.29,0,0,1,3.59,2.2,1.4,1.4,0,0,1,1.27.06c.45.35.35,1.1.29,1.5a7.68,7.68,0,0,1-3.82,5.33c-.86.48-3.74,2.08-6.48.58s-3-4.83-3-5.1C321.26,217.6,319.71,216.67,319.83,215.69Z" transform="translate(-12.87 -95.5)"/><path class="cls-3" d="M331.32,217.31c0-.58-2.61-.12-4.13-.12s-3.2-.46-3.2.12,1.69,2,3.2,2S331.32,217.88,331.32,217.31Z" transform="translate(-12.87 -95.5)"/><path class="cls-3" d="M280,225.65a33.51,33.51,0,0,0,17.6,9.37" transform="translate(-12.87 -95.5)"/><path class="cls-3" d="M277.47,237a37.74,37.74,0,0,0,18.4,2" transform="translate(-12.87 -95.5)"/><path class="cls-3" d="M375,229.1a16.55,16.55,0,0,1-12,6.49" transform="translate(-12.87 -95.5)"/><path class="cls-3" d="M381.75,237.09a16.37,16.37,0,0,1-11,3.47" transform="translate(-12.87 -95.5)"/><path class="cls-3" d="M308.71,277l-.15-.26a20,20,0,0,1-2.43-14.52c1.83-7.48,8.25-11.67,10.67-13.24a28.15,28.15,0,0,1,3.65-2l.38.85a26.13,26.13,0,0,0-3.52,1.93c-2.56,1.67-8.54,5.57-10.28,12.69A19,19,0,0,0,309.21,276a28.58,28.58,0,0,0,11.71-4.12c3.29-2.07,8.27-5.2,9.16-10.74a11.88,11.88,0,0,0-.78-6.35l.86-.34a12.79,12.79,0,0,1,.84,6.84c-1,5.95-6.36,9.34-9.59,11.37a29.52,29.52,0,0,1-12.4,4.3Z" transform="translate(-12.87 -95.5)"/><path class="cls-3" d="M332,254.46a18.38,18.38,0,0,0-.18,5.09c1.07,10.13,10.31,15.65,11.06,16.09a22.76,22.76,0,0,0,6.48,2.49A38.18,38.18,0,0,1,350,273a46.27,46.27,0,0,1,1.62-5.84,16.81,16.81,0,0,0-12.68-20.71" transform="translate(-12.87 -95.5)"/><path class="cls-3" d="M322.73,251.57a16.35,16.35,0,0,0-3.59,3.18,16.53,16.53,0,0,0-2.37,3.76" transform="translate(-12.87 -95.5)"/><path class="cls-3" d="M322.49,235.6c-3.25,5-3.23,11-.11,14.93,1.94,2.44,5.67,4.77,9.61,3.93,4.9-1,7.32-6.38,7.63-10.3a13,13,0,0,0-4.24-10.46" transform="translate(-12.87 -95.5)"/><path class="cls-3" d="M325.91,253.83a21.18,21.18,0,0,1-2.31,5,21.46,21.46,0,0,1-4.57,5.1" transform="translate(-12.87 -95.5)"/><path class="cls-3" d="M335.05,253.48a21.7,21.7,0,0,1,2.43,2.77,21.93,21.93,0,0,1,3.13,6" transform="translate(-12.87 -95.5)"/><path class="cls-3" d="M337,250.93a12.67,12.67,0,0,1,8.68,7.75" transform="translate(-12.87 -95.5)"/><path class="cls-3" d="M256.3,266.05a41.23,41.23,0,0,1,7.4-5c3-1.55,8.49-4,22.92-5.1a166.65,166.65,0,0,1,22.91-.06" transform="translate(-12.87 -95.5)"/><path class="cls-3" d="M349.87,254.46c3,.14,6.16.36,9.37.69a179.61,179.61,0,0,1,37.56,8.21" transform="translate(-12.87 -95.5)"/><path class="cls-3" d="M273.89,257.94a78.52,78.52,0,0,1,2.08,19,82.07,82.07,0,0,1-12.6,41.9" transform="translate(-12.87 -95.5)"/><path class="cls-3" d="M265.8,315.24a45.46,45.46,0,0,1,2.9,28.47,8.47,8.47,0,0,0-6.25.35c-2.53,1.37-3.09,4-4.52,3.93-.75,0-1.25-.79-2.43-4.7" transform="translate(-12.87 -95.5)"/><path class="cls-3" d="M257.75,312.87a4.07,4.07,0,0,1,1.85-4.52c1.83-.84,4.32,1.49,5.39,3.18a16.69,16.69,0,0,1,.93,1.67" transform="translate(-12.87 -95.5)"/><path class="cls-3" d="M252.08,316.46c-.51-3.94.72-6.72,2.08-6.95,1.13-.19,2.58,1.33,3.59,3.36" transform="translate(-12.87 -95.5)"/><path class="cls-3" d="M251.85,315.47a17.86,17.86,0,0,1,14.24-2.08" transform="translate(-12.87 -95.5)"/><path class="cls-3" d="M252.72,324.31a29.69,29.69,0,0,1,14.93-4" transform="translate(-12.87 -95.5)"/><path class="cls-3" d="M254.42,338.77a24.05,24.05,0,0,1,15.2-5.48" transform="translate(-12.87 -95.5)"/><path class="cls-3" d="M255.35,343.75a18.89,18.89,0,0,1,6.13-3.78,19.09,19.09,0,0,1,7.91-1.2" transform="translate(-12.87 -95.5)"/><line class="cls-3" x1="243.66" y1="227.15" x2="241.2" y2="237.91"/><line class="cls-3" x1="248.68" y1="225.49" x2="244.32" y2="241.19"/><line class="cls-3" x1="254.12" y1="224.71" x2="250.46" y2="238.87"/><line class="cls-3" x1="240.77" y1="234.71" x2="246.17" y2="240.26"/><line class="cls-3" x1="241.96" y1="227.57" x2="251.27" y2="238.29"/><line class="cls-3" x1="247.06" y1="225.8" x2="256.67" y2="237.56"/><path class="cls-3" d="M258.47,348s-.11,7,.51,8.57,3,8.14,3.86,8.52,1.11,0,1.11,0a19.07,19.07,0,0,0,1.78,2.93,1.25,1.25,0,0,0,1.39.16s.19.62.65.77a4.65,4.65,0,0,0,1.78-.31,4.74,4.74,0,0,0,1.54.62,1.53,1.53,0,0,0,1.28-1.78c-.31-1-2.59-9.1-2.75-10.14s-.92-2.09-.27-2.16,2.51,1.31,3.17,1.23,1.81-1.08,1.19-1.89-4.47-7.45-4.86-8.33a11,11,0,0,1-.54-2.63" transform="translate(-12.87 -95.5)"/><path class="cls-3" d="M261.44,355.32s1.95,8.87,2.38,9.6" transform="translate(-12.87 -95.5)"/><path class="cls-3" d="M263.76,356.75s3,11,3.31,11.11" transform="translate(-12.87 -95.5)"/><line class="cls-3" x1="253.32" y1="260.86" x2="256.87" y2="273.05"/><path class="cls-3" d="M380.94,259a49.47,49.47,0,0,0-2.31,7.06c-4.93,20.27,4.77,38.63,9.85,46.76.06.9.12,2.27.12,3.94a64.78,64.78,0,0,1-.93,10.41c-.46,3.27-.42,8.19,2.09,15.16a7.43,7.43,0,0,1,6.25.12,6.15,6.15,0,0,1,2.72,2.81" transform="translate(-12.87 -95.5)"/><path class="cls-3" d="M390.11,342.24a71.48,71.48,0,0,0-2.95,8.62c-.47,2.49-3,6.94-3.42,7.64s.29,1.68,1.28.92,3.24-3,3.24-3.76-2.49,12.62-2,13.2,1.39.69,1.68.29.81-.06,1.39-.41,2.26-1.85,2.14-2.26.29-.46.93-.92a6,6,0,0,0,1.56-2.9c.11-.81.17-.75.58-1.1s2.19-7.11,2.37-7.69.86-10,.86-10" transform="translate(-12.87 -95.5)"/><path class="cls-3" d="M387.56,369a6.77,6.77,0,0,1,.54-1.89c.51-1.23,2.51-7.52,2.47-8.72a14.73,14.73,0,0,0-.11-1.62" transform="translate(-12.87 -95.5)"/><path class="cls-3" d="M391,367a16.34,16.34,0,0,1,.5-3,34.59,34.59,0,0,0,1.62-5.55,27.14,27.14,0,0,0,.34-4.48" transform="translate(-12.87 -95.5)"/><path class="cls-3" d="M394,362.4s1.32-5.64,1.39-7.14.12-2,.12-2" transform="translate(-12.87 -95.5)"/><path class="cls-3" d="M299,255.39l-1.13,38.08a.46.46,0,0,0,.44.48c5.6.15,60.36,1.67,61.35,1s-.6-30.29-1.66-35.23c-.11-.54-.23-1.07-.34-1.61-.14-.72-.42-1.58-1-1.58l-5.67-.06" transform="translate(-12.87 -95.5)"/><ellipse class="cls-3" cx="289.83" cy="174.59" rx="1.68" ry="1.79"/><ellipse class="cls-3" cx="292.3" cy="189.78" rx="2.17" ry="2.29"/><ellipse class="cls-3" cx="302.62" cy="181.05" rx="1.68" ry="1.52"/><ellipse class="cls-3" cx="305.34" cy="185.35" rx="1.85" ry="1.91"/><ellipse class="cls-3" cx="310.96" cy="189.34" rx="2.43" ry="2.26"/><ellipse class="cls-3" cx="317.47" cy="190.85" rx="2.17" ry="2.2"/><ellipse class="cls-3" cx="323.86" cy="187.37" rx="2.2" ry="2.08"/><ellipse class="cls-3" cx="327.71" cy="181.96" rx="1.42" ry="1.53"/><ellipse class="cls-3" cx="339.69" cy="191.25" rx="2.34" ry="2.26"/><ellipse class="cls-3" cx="341.97" cy="174.35" rx="2.08" ry="2.26"/><ellipse class="cls-3" cx="374.55" cy="174.03" rx="0.93" ry="2.28"/><ellipse class="cls-3" cx="376.1" cy="199.38" rx="1.23" ry="2.39"/><ellipse class="cls-3" cx="384.86" cy="194.48" rx="0.42" ry="1.81"/><path class="cls-3" d="M388.44,312.63a6.4,6.4,0,0,1,2.62-4.86c.5-.32,2.11-1.35,3.63-.62a3.77,3.77,0,0,1,1.77,4c.09-2.33.69-4.28,1.62-4.48s2.75,1.79,3.79,5.17" transform="translate(-12.87 -95.5)"/><path class="cls-3" d="M388.44,314a10.91,10.91,0,0,1,13.35-.7" transform="translate(-12.87 -95.5)"/><path class="cls-3" d="M388.52,318.11a20.78,20.78,0,0,1,13,.92" transform="translate(-12.87 -95.5)"/><path class="cls-3" d="M387.44,329.83a13.34,13.34,0,0,1,12.73,3.32" transform="translate(-12.87 -95.5)"/><path class="cls-3" d="M388.45,337.24a9.11,9.11,0,0,1,4.08-.93,9.82,9.82,0,0,1,6.87,3.24" transform="translate(-12.87 -95.5)"/><line class="cls-3" x1="381.04" y1="222.1" x2="375.3" y2="230.01"/><line class="cls-3" x1="386.14" y1="222.68" x2="377.42" y2="233.83"/><line class="cls-3" x1="388.53" y1="226.54" x2="382.71" y2="234.76"/><line class="cls-3" x1="376.11" y1="222.68" x2="380.28" y2="234.02"/><line class="cls-3" x1="379.42" y1="221.87" x2="384.33" y2="235.49"/><line class="cls-3" x1="384.44" y1="222.14" x2="387.61" y2="236.8"/><ellipse class="cls-3" cx="254.65" cy="173.79" rx="1.62" ry="2.55"/><ellipse class="cls-3" cx="244" cy="191.38" rx="1.16" ry="1.93"/><ellipse class="cls-3" cx="252.49" cy="203.65" rx="1.31" ry="2.47"/><path class="cls-3" d="M311.3,294.82a29.35,29.35,0,0,0-7.94,18.52c-.45,9.71,6.74,16.2,7.7,17.44-1.11,1.13-8.5,6.53-9,15.43-.69,11.38,8,18.57,8.8,19.29-.85.62-7.55,4.71-8.52,12.5-.81,6.48,4,13.06,8.78,17.13-.74.78-7.38,5.58-7.3,13.11a19.29,19.29,0,0,0,7.68,15Z" transform="translate(-12.87 -95.5)"/><path class="cls-3" d="M346.62,295.43a27.44,27.44,0,0,1,8.64,17.9c.47,8.44-10.31,18.29-8.64,17-1.12-1.18,7.7,10.16,8,16.36.61,11.34-8.08,18.76-9.25,19.91,1.14,1,7.13,5.13,7.87,12,1.05,9.83-8.08,16.21-8.64,16.66,1.06,1.26,5.75,5.48,5.87,11.73.15,8.19-6.21,13.38-7.1,14.2Z" transform="translate(-12.87 -95.5)"/><path class="cls-3" d="M338.81,305.17c2-2.87,3-8.12,3-8.12s-6.81,1.25-8.8,4.12-2.3,6.1-.71,7.2S336.82,308,338.81,305.17Z" transform="translate(-12.87 -95.5)"/><path class="cls-3" d="M341.83,297.05s-8.95,11.11-9.72,11.34" transform="translate(-12.87 -95.5)"/><path class="cls-3" d="M317.83,306.92c1.6,2.47,3.95,3.78,5.25,2.94s1.07-3.53-.52-6-6.19-5.72-6.19-5.72S316.23,304.45,317.83,306.92Z" transform="translate(-12.87 -95.5)"/><path class="cls-3" d="M316.52,298.44s6,11.64,6.56,11.42" transform="translate(-12.87 -95.5)"/><ellipse class="cls-3" cx="315.77" cy="223.58" rx="8.95" ry="10.07"/><ellipse class="cls-3" cx="314.03" cy="225.66" rx="6.13" ry="7.26"/><path class="cls-3" d="M331.79,334.45c-2.28,4.79-2.72,9.77.15,11.13s6.57-1.41,8.84-6.19,1.71-13,1.71-13S334.06,329.67,331.79,334.45Z" transform="translate(-12.87 -95.5)"/><path class="cls-3" d="M316.11,340.87c3,4.37,8.11,6.14,9.71,5,1.44-1.05,1.14-5.93-1.86-10.3s-9.45-8-9.45-8S313.11,336.51,316.11,340.87Z" transform="translate(-12.87 -95.5)"/><path class="cls-3" d="M342.48,326.22s-6.19,18.89-9.61,19.76" transform="translate(-12.87 -95.5)"/><path class="cls-3" d="M314.44,327.35s10.16,17.88,11.89,18" transform="translate(-12.87 -95.5)"/><ellipse class="cls-3" cx="315.93" cy="262.16" rx="8.95" ry="10.07"/><ellipse class="cls-3" cx="314.2" cy="264.24" rx="6.13" ry="7.26"/><ellipse class="cls-3" cx="314.86" cy="302.52" rx="8.95" ry="8.6"/><ellipse class="cls-3" cx="313.12" cy="304.29" rx="6.13" ry="6.21"/><path class="cls-3" d="M331,376.27c-2.28,4.79-2.72,9.77.14,11.13s6.58-1.41,8.85-6.19,1.7-13,1.7-13S333.3,371.49,331,376.27Z" transform="translate(-12.87 -95.5)"/><path class="cls-3" d="M315.35,382.23c3,4.36,8.11,6.14,9.7,5s1.15-5.93-1.85-10.29-9.45-8-9.45-8S312.35,377.87,315.35,382.23Z" transform="translate(-12.87 -95.5)"/><path class="cls-3" d="M341.71,367.57s-6.19,18.9-9.6,19.77" transform="translate(-12.87 -95.5)"/><path class="cls-3" d="M313.67,368.71s10.16,17.88,11.9,18" transform="translate(-12.87 -95.5)"/><path class="cls-3" d="M330.71,411.71c-1.85,3.91-2.22,8,.12,9.09s5.37-1.15,7.23-5.05,1.39-10.6,1.39-10.6S332.57,407.81,330.71,411.71Z" transform="translate(-12.87 -95.5)"/><path class="cls-3" d="M317.92,416.58c2.44,3.56,6.61,5,7.92,4.06s.94-4.84-1.51-8.4-7.72-6.51-7.72-6.51S315.47,413,317.92,416.58Z" transform="translate(-12.87 -95.5)"/><path class="cls-3" d="M339.44,404.61s-5.05,15.43-7.84,16.14" transform="translate(-12.87 -95.5)"/><path class="cls-3" d="M316.55,405.54s8.29,14.59,9.71,14.71" transform="translate(-12.87 -95.5)"/><path class="cls-3" d="M337.64,153a28.2,28.2,0,0,0,8.33,9.83c3.88,2.81,6.34,3,9.61,5.67,2.34,1.94,5.34,5.4,7.18,11.92" transform="translate(-12.87 -95.5)"/><path class="cls-3" d="M321.78,152.27a55.17,55.17,0,0,1-24.53,18.17" transform="translate(-12.87 -95.5)"/><ellipse class="cls-3" cx="288.53" cy="234.66" rx="2.62" ry="2.78"/><ellipse class="cls-3" cx="289.62" cy="269.3" rx="2.31" ry="2.55"/><ellipse class="cls-3" cx="289.47" cy="300.17" rx="2.47" ry="2.55"/><circle class="cls-3" cx="341.31" cy="234.8" r="3.09"/><ellipse class="cls-3" cx="340.85" cy="269.53" rx="2.62" ry="2.78"/><ellipse class="cls-3" cx="339.55" cy="298.46" rx="2.7" ry="2.55"/><circle class="cls-3" cx="274.35" cy="312.13" r="1.85"/><ellipse class="cls-3" cx="285.46" cy="274.71" rx="1.08" ry="1.31"/><ellipse class="cls-3" cx="264.54" cy="248.55" rx="1.47" ry="1.54"/><ellipse class="cls-3" cx="286.14" cy="224.01" rx="2.08" ry="2.16"/><ellipse class="cls-3" cx="270.31" cy="182.12" rx="1.85" ry="1.93"/><ellipse class="cls-3" cx="357.96" cy="174.15" rx="2.16" ry="2.62"/><circle class="cls-3" cx="360.67" cy="207.87" r="0.54"/><ellipse class="cls-3" cx="349.33" cy="202.16" rx="1.08" ry="1.31"/><ellipse class="cls-3" cx="344.7" cy="222.23" rx="1.85" ry="2.08"/><ellipse class="cls-3" cx="370.71" cy="244.91" rx="1.16" ry="2.08"/><ellipse class="cls-3" cx="347.26" cy="275.23" rx="1.62" ry="1.54"/><ellipse class="cls-3" cx="361.46" cy="306.4" rx="1.47" ry="1.54"/><ellipse class="cls-3" cx="335.66" cy="124.87" rx="5.9" ry="6.08"/><ellipse class="cls-3" cx="294.57" cy="125.17" rx="6.25" ry="5.9"/></g><g class="cls-5"><path class="cls-3" d="M558.15,262.71c1.35,5.25,4.29,11.46,6.29,16.5a8,8,0,0,1,.5,2L566,288.4a11.5,11.5,0,0,0,.23,1.14l.08.31a11,11,0,0,1,.35,2.36h0a10.05,10.05,0,0,0,.11,1.22l4.52,17.3c2,16.46-2.92,40.76-7,59.61a118.5,118.5,0,0,1-6.24,20.08h0c-1.45,3.53-2.71,7.14-3.9,10.77-3,9.21-8.91,9.77-20.39,11.5-41.88,6.32-56.39,3.07-65.9-3.91-3.83-2.81-7.29-8.45-9-13.49-1-2.93-2-5.84-3.14-8.68h0a53.46,53.46,0,0,1-3.6-10.58c-3.37-18.6-8.76-45.82-6.66-62.56l4.73-24.13h-.06l.1-.3.92-6.82a10.89,10.89,0,0,1,.79-2.91,274.42,274.42,0,0,0,9.76-28l2.8-9.19,3.74-26a38.33,38.33,0,0,1,38.16-32.86l5.87,0a38.3,38.3,0,0,1,37.73,33.12l3.39,24.81c.14,1,.32,1.92.55,2.87Z" transform="translate(-12.87 -95.5)"/><path class="cls-3" d="M475.1,222.12c.3,24,13.76,34.83,31.6,34.94,27,.16,32.39-15.58,32.5-35S525,186.7,507.12,186.59,474.85,202.66,475.1,222.12Z" transform="translate(-12.87 -95.5)"/><path class="cls-3" d="M507.39,186.51a59.29,59.29,0,0,1-7.08,23.31A60.07,60.07,0,0,1,477.18,233" transform="translate(-12.87 -95.5)"/><path class="cls-3" d="M507.14,186.39c-.89,12.43,2.39,19.36,5.58,23.39,2.7,3.41,5.29,4.7,15.73,13.23,4.39,3.59,7.91,6.61,10.17,8.58" transform="translate(-12.87 -95.5)"/><path class="cls-3" d="M504.06,222.92a8.71,8.71,0,0,0-9.64-4.31" transform="translate(-12.87 -95.5)"/><path class="cls-3" d="M509.9,223.87a8.79,8.79,0,0,1,5-4.16c3.64-1,7.92.77,10.37,4.62" transform="translate(-12.87 -95.5)"/><path class="cls-3" d="M505.15,233.51a18.49,18.49,0,0,0-2.64-4.63c-1.29-1.65-2.68-3.42-4.36-3.8-2.78-.64-6.52,2.45-9,7.55a5.22,5.22,0,0,1-2,.71,5.87,5.87,0,0,1-4.43-1.36" transform="translate(-12.87 -95.5)"/><path class="cls-3" d="M490.21,230.69a13.74,13.74,0,0,1-2.39,0,8.42,8.42,0,0,1-3-1" transform="translate(-12.87 -95.5)"/><path class="cls-3" d="M491.07,229.35a12.8,12.8,0,0,1-1.7-.66,13.7,13.7,0,0,1-3-1.92" transform="translate(-12.87 -95.5)"/><path class="cls-3" d="M492.38,227.62,491,227c-.83-.4-1.63-.82-2.38-1.23" transform="translate(-12.87 -95.5)"/><path class="cls-3" d="M494.42,225.85a13.91,13.91,0,0,1-1.62-.74,12.69,12.69,0,0,1-1.62-1" transform="translate(-12.87 -95.5)"/><path class="cls-3" d="M490.65,231.58c.07.45.69,4.09,3.42,5.25s6.34-1.08,7.63-1.94a12.21,12.21,0,0,0,1.22-.92" transform="translate(-12.87 -95.5)"/><path class="cls-3" d="M491.16,234.26a4.75,4.75,0,0,0-3.75,2.74" transform="translate(-12.87 -95.5)"/><path class="cls-3" d="M492.17,235.4a6.35,6.35,0,0,0-1.87.76,6.26,6.26,0,0,0-1.55,1.33" transform="translate(-12.87 -95.5)"/><ellipse class="cls-3" cx="497.86" cy="229.68" rx="4.18" ry="3.95" transform="translate(252.3 630.64) rotate(-89.65)"/><path class="cls-3" d="M510.74,235a18.6,18.6,0,0,1,2.71-4.61c1.31-1.63,2.71-3.38,4.4-3.74,2.78-.6,6.49,2.53,8.95,7.65a5.2,5.2,0,0,0,1.94.75,5.86,5.86,0,0,0,4.45-1.32" transform="translate(-12.87 -95.5)"/><path class="cls-3" d="M525.72,232.36a13.4,13.4,0,0,0,2.39,0,8.35,8.35,0,0,0,3-1" transform="translate(-12.87 -95.5)"/><path class="cls-3" d="M524.88,231a14.69,14.69,0,0,0,1.7-.64,14,14,0,0,0,3.06-1.89" transform="translate(-12.87 -95.5)"/><path class="cls-3" d="M523.59,229.27l1.42-.64c.84-.4,1.64-.8,2.4-1.21" transform="translate(-12.87 -95.5)"/><path class="cls-3" d="M521.57,227.47a13.65,13.65,0,0,0,1.63-.72,15.13,15.13,0,0,0,1.63-1" transform="translate(-12.87 -95.5)"/><path class="cls-3" d="M525.27,233.25c-.08.44-.74,4.08-3.48,5.21s-6.33-1.16-7.61-2a14.68,14.68,0,0,1-1.21-.94" transform="translate(-12.87 -95.5)"/><path class="cls-3" d="M524.73,235.92a4.86,4.86,0,0,1,2.42,1.07,4.77,4.77,0,0,1,1.29,1.71" transform="translate(-12.87 -95.5)"/><path class="cls-3" d="M523.7,237.05a6.32,6.32,0,0,1,1.87.78,6.51,6.51,0,0,1,1.53,1.35" transform="translate(-12.87 -95.5)"/><ellipse class="cls-3" cx="518.08" cy="231.26" rx="4.18" ry="3.95" transform="translate(270.82 652.44) rotate(-89.65)"/><ellipse class="cls-3" cx="509.31" cy="241.23" rx="0.46" ry="0.49" transform="translate(252.13 653.57) rotate(-89.65)"/><ellipse class="cls-3" cx="506.51" cy="240.82" rx="0.49" ry="0.43" transform="translate(249.76 650.37) rotate(-89.65)"/><path class="cls-3" d="M501.54,247.39c.41-.45,1.26.34,2.35-.14s1.07-1.45,1.71-1.42.66.76,1.63,1a1.14,1.14,0,0,0,.73,0c.4-.17.37-.56.71-.72a1.3,1.3,0,0,1,1.24.34c.66.56.32,1.19.81,1.55.69.51,1.64-.47,2.62,0a1.4,1.4,0,0,1,.78,1.16c0,1-1.83,2-3.2,1.71-1-.21-1.27-1-2.15-.86-.6.08-.65.47-1.32.51s-.75-.26-1.61-.35a8.82,8.82,0,0,0-1.18.06,4.14,4.14,0,0,1-2.07-.29C501.59,249.45,501.1,247.89,501.54,247.39Z" transform="translate(-12.87 -95.5)"/><path class="cls-3" d="M510.46,251.93c0-.63-1.42-.18-3.16-.19s-3.16-.48-3.17.15,1.4,2.12,3.15,2.13S510.45,252.56,510.46,251.93Z" transform="translate(-12.87 -95.5)"/><ellipse class="cls-3" cx="522.78" cy="246.58" rx="4.38" ry="4.56" transform="matrix(0.01, -1, 1, 0.01, 260.17, 672.35)"/><ellipse class="cls-3" cx="492.13" cy="245.36" rx="4.2" ry="4.56" transform="matrix(0.01, -1, 1, 0.01, 230.93, 640.49)"/><path class="cls-3" d="M463.72,245.85a17.19,17.19,0,0,0,4.35,4.77,17.41,17.41,0,0,0,8.62,3.34" transform="translate(-12.87 -95.5)"/><path class="cls-3" d="M460.14,254.83a20.91,20.91,0,0,0,6.18,3.57,21.46,21.46,0,0,0,11.19.92" transform="translate(-12.87 -95.5)"/><path class="cls-3" d="M553.52,241.53a33.3,33.3,0,0,1-4,5.81,33.9,33.9,0,0,1-8.19,6.89" transform="translate(-12.87 -95.5)"/><path class="cls-3" d="M556.25,253.59a57.89,57.89,0,0,1-17.07,6.59" transform="translate(-12.87 -95.5)"/><path class="cls-3" d="M503.1,265.31a17.76,17.76,0,0,0-7.81,3c-7,5-9.79,15.26-7.53,26.23,1-.43,2.64-1.1,4.55-2,6-2.83,9.2-4.36,11.72-7.39a17.53,17.53,0,0,0,3.62-7.85" transform="translate(-12.87 -95.5)"/><path class="cls-3" d="M517.69,266.37a18.89,18.89,0,0,1,5,2.3c10.08,6.6,10.18,21,10.16,23.26l.72,2.11c-.71-.21-1.75-.53-3-1-4.22-1.55-9.27-3.4-13.17-7.62A21.32,21.32,0,0,1,513,278" transform="translate(-12.87 -95.5)"/><polyline class="cls-3" points="489.95 174.35 485.14 179.27 481.72 181.68"/><path class="cls-3" d="M504.18,274.08q-1.33,1.6-2.94,3.3c-1.08,1.15-2.15,2.19-3.18,3.15" transform="translate(-12.87 -95.5)"/><path class="cls-3" d="M516.09,275.53a17.14,17.14,0,0,1,3,1.48,17.45,17.45,0,0,1,4.28,3.75" transform="translate(-12.87 -95.5)"/><path class="cls-3" d="M517.81,272.37a12.21,12.21,0,0,1,3.08,1.4,12.61,12.61,0,0,1,4.19,4.49" transform="translate(-12.87 -95.5)"/><path class="cls-3" d="M450.85,282.68c2.84-.67,5.85-1.26,9-1.73a117.82,117.82,0,0,1,27.58-.89" transform="translate(-12.87 -95.5)"/><path class="cls-3" d="M530.67,278.78q8.08.62,16.62,1.56,9.19,1,17.82,2.3" transform="translate(-12.87 -95.5)"/><ellipse class="cls-3" cx="521.66" cy="293.24" rx="2.03" ry="1.95" transform="translate(212.4 717.62) rotate(-89.65)"/><ellipse class="cls-3" cx="516.09" cy="296.82" rx="2.23" ry="2.47" transform="translate(203.28 715.6) rotate(-89.65)"/><ellipse class="cls-3" cx="509.26" cy="299.33" rx="2.76" ry="2.72" transform="translate(193.98 711.27) rotate(-89.65)"/><ellipse class="cls-3" cx="502.42" cy="296.81" rx="2.55" ry="2.51" transform="translate(189.7 701.93) rotate(-89.65)"/><ellipse class="cls-3" cx="497.01" cy="293.78" rx="2.31" ry="2.19" transform="translate(187.35 693.5) rotate(-89.65)"/><ellipse class="cls-3" cx="487.84" cy="300.78" rx="2.23" ry="2.07" transform="translate(171.24 691.29) rotate(-89.65)"/><ellipse class="cls-3" cx="532.08" cy="300.36" rx="1.95" ry="2.03" transform="translate(215.64 735.12) rotate(-89.65)"/><path class="cls-3" d="M462.86,280.23c-3.47,11-4.26,18.63-4.27,23.74,0,2.2.12,7.06-2.83,11.66a17.75,17.75,0,0,1-4.57,4.76" transform="translate(-12.87 -95.5)"/><path class="cls-3" d="M454.69,317.08a134.33,134.33,0,0,1-1.31,16c-.45,3.43-1,6.7-1.6,9.8a12.09,12.09,0,0,1-2.76,0,12.65,12.65,0,0,1-2.51-.58" transform="translate(-12.87 -95.5)"/><path class="cls-3" d="M445.74,312.53c.76-3.15,2.31-5.75,4-5.88,2.06-.15,4.83,3.86,5.42,9.65" transform="translate(-12.87 -95.5)"/><path class="cls-3" d="M445.72,312.24a11.21,11.21,0,0,1,9.51,4" transform="translate(-12.87 -95.5)"/><path class="cls-3" d="M445.08,318.36a22.42,22.42,0,0,1,2.79.83,21.7,21.7,0,0,1,6.5,3.85" transform="translate(-12.87 -95.5)"/><path class="cls-3" d="M445.3,328.91a35.27,35.27,0,0,1,8.09,3.33" transform="translate(-12.87 -95.5)"/><path class="cls-3" d="M445.55,334.46a9.76,9.76,0,0,1,7.15,3.21" transform="translate(-12.87 -95.5)"/><line class="cls-3" x1="433.01" y1="223.15" x2="437.24" y2="235.14"/><polyline class="cls-3" points="440.85 234.81 436.58 224.62 432.36 230.81"/><line class="cls-3" x1="440.05" y1="226.48" x2="434.49" y2="234.11"/><line class="cls-3" x1="441.41" y1="229.77" x2="438.01" y2="235.39"/><ellipse class="cls-3" cx="454.85" cy="299.57" rx="3.47" ry="1.37" transform="translate(139.67 657.1) rotate(-89.65)"/><ellipse class="cls-3" cx="452.63" cy="289.67" rx="2.1" ry="0.91" transform="translate(41.59 555.07) rotate(-74.81)"/><path class="cls-3" d="M451.05,343.13s1.51,5.28,2.07,6.54,2.68,5.13,2.48,6.06-2.64-.62-2.83-1.56a14,14,0,0,1,.18,3.49c-.26,1.82-.64,5.43-1,7.58s-.59,4.21-.59,4.21" transform="translate(-12.87 -95.5)"/><line class="cls-3" x1="437.56" y1="261.86" x2="437.23" y2="269.12"/><path class="cls-3" d="M555.47,281.69c.41,2.74.83,5.5,1.29,8.27q2.84,17.48,6.48,33.74c.24,3.12.54,6.33.92,9.62.66,5.81,1.5,11.33,2.45,16.55l2.08-1.2" transform="translate(-12.87 -95.5)"/><path class="cls-3" d="M569.53,320.33a25.48,25.48,0,0,1,.21-5.23,17,17,0,0,1,1.49-4.55" transform="translate(-12.87 -95.5)"/><path class="cls-3" d="M563.07,322.91c-.51-4.19,1.11-7.59,2.66-7.77,1.27-.15,2.82,2.95,3.8,5.19" transform="translate(-12.87 -95.5)"/><path class="cls-3" d="M563.23,325.22c1.18-.8,2.38-1.67,3.61-2.59,1.74-1.32,3.35-2.64,4.83-3.93" transform="translate(-12.87 -95.5)"/><path class="cls-3" d="M563.82,329.66c.78-.77,1.66-1.56,2.62-2.35a39.86,39.86,0,0,1,5.32-3.68" transform="translate(-12.87 -95.5)"/><path class="cls-3" d="M565.08,341.35q1.71-1.65,3.49-3.32c.61-.58,1.22-1.14,1.83-1.7" transform="translate(-12.87 -95.5)"/><path class="cls-3" d="M565.73,344.64c.62-.48,1.32-1,2.08-1.45s1.42-.86,2.07-1.2" transform="translate(-12.87 -95.5)"/><line class="cls-3" x1="551.18" y1="234.1" x2="556.86" y2="241.32"/><line class="cls-3" x1="554.79" y1="230.72" x2="558.42" y2="234.94"/><line class="cls-3" x1="551.75" y1="241.65" x2="554.43" y2="231.08"/><line class="cls-3" x1="554.35" y1="243.73" x2="557.66" y2="229.03"/><path class="cls-3" d="M567.47,349.31a6.16,6.16,0,0,0-1.64,2.83c-.58,1.94-2.42,10.28-2.91,11.58s-.41,1.54.48,1.06,2.14-4.86,2.14-4.86l-.27,4.95" transform="translate(-12.87 -95.5)"/><path class="cls-3" d="M494.49,306.7c-.62.29-7.48,4.59-8.75,12.11-1,6.12,3.52,12.46,9.23,15.79-.36.27-9.67,6.13-8.77,15.76.76,8.13,8.11,12.42,8.93,12.95-5.09,3.16-8.91,8.86-8.28,14.63.84,7.7,8.41,11.41,9,11.73-1.34.77-6,3.15-7.35,7.58-1.76,5.91,1.41,14.57,8.16,18.62Z" transform="translate(-12.87 -95.5)"/><path class="cls-3" d="M521.55,305.89c.84.33,7.45,4.34,9.5,11.41,1.77,6.16-2.61,13.05-8.14,17.23,1.31.81,8.24,4.17,9.79,10.52,1.64,6.68-3.12,14-9.11,18.67.84.52,8.1,3.91,9.18,10.52.92,5.67-3.09,11.5-8,15-.38-.24,6.44,4.11,7.38,7.58,1.48,5.52-1.29,12.89-7,16.63Z" transform="translate(-12.87 -95.5)"/><path class="cls-3" d="M535.37,279.21s2.21,9.83,3.16,13.32c.79,2.9,1.06,9.63,1.13,11.85a1.18,1.18,0,0,1-.62,1.07h0a1.18,1.18,0,0,1-.55.14c-1.75,0-11.15,0-20.28.11a13.82,13.82,0,0,0-.76-1.69,16.13,16.13,0,0,0-2,1.71c-7.55.07-14.37.16-15.8.28l-.93.08-.36-.27a20.41,20.41,0,0,1-2.23-1.82s-.24,1.17-.45,2.27v0c-5.42.35-13.78.63-15.81-.74,0,0,2.19-25.62,3.65-25.77" transform="translate(-12.87 -95.5)"/><path class="cls-3" d="M513.12,322.61c-1-.22-1.63-1.33-1.95-3a10.71,10.71,0,0,0-5.55.16,2.88,2.88,0,0,1-1.43,2.53,2.7,2.7,0,0,1-2.41-.42,9.11,9.11,0,0,0-3.2,6.82c0,5.22,4.48,9.48,10.08,9.51s10.16-4.17,10.19-9.38a9.15,9.15,0,0,0-3.46-7.16A2.59,2.59,0,0,1,513.12,322.61Z" transform="translate(-12.87 -95.5)"/><path class="cls-3" d="M518.21,305.7a13.82,13.82,0,0,0-.76-1.69,16.13,16.13,0,0,0-2,1.71,14.55,14.55,0,0,0-4,6.72,17.83,17.83,0,0,0-.36,7.21c.32,1.63,1,2.74,1.95,3a2.59,2.59,0,0,0,2.27-.9c1.46-1.38,2.87-4.15,3.66-7.52A15.09,15.09,0,0,0,518.21,305.7Z" transform="translate(-12.87 -95.5)"/><path class="cls-3" d="M504,311.86a14.71,14.71,0,0,0-5-5.74l-.39-.28a21.24,21.24,0,0,1-2.36-1.85s-.25,1.19-.47,2.31v0a14.72,14.72,0,0,0,.71,8.62c1.48,3.31,3.53,5.88,5.34,7a2.7,2.7,0,0,0,2.41.42,2.88,2.88,0,0,0,1.43-2.53A16.31,16.31,0,0,0,504,311.86Z" transform="translate(-12.87 -95.5)"/><path class="cls-3" d="M512.17,340.56c-2.62,4.49-3,9.11-.95,10.33s5.9-1.44,8.52-5.92.94-10.33.94-10.33S514.78,336.07,512.17,340.56Z" transform="translate(-12.87 -95.5)"/><path class="cls-3" d="M498.12,345.44c2.89,4.31,6.86,6.72,8.87,5.37s1.3-5.93-1.59-10.25-8.87-5.37-8.87-5.37S495.23,341.12,498.12,345.44Z" transform="translate(-12.87 -95.5)"/><path class="cls-3" d="M518.44,361.7a11,11,0,0,0-10.65-7.8A11.12,11.12,0,0,0,497.66,360a20.53,20.53,0,0,1,8.36,8.13,28.09,28.09,0,0,1,2.45,6.6,10.74,10.74,0,0,0,1.61-.21,28.29,28.29,0,0,1,2.47-6.35A19.09,19.09,0,0,1,518.44,361.7Z" transform="translate(-12.87 -95.5)"/><path class="cls-3" d="M522.17,359.56a21.5,21.5,0,0,0-3.73,2.14,19.09,19.09,0,0,0-5.89,6.45,28.29,28.29,0,0,0-2.47,6.35c-.78,3.22-.55,5.72.82,6.44,2.2,1.16,6.5-2.69,9.62-8.59S522.17,359.56,522.17,359.56Z" transform="translate(-12.87 -95.5)"/><path class="cls-3" d="M508.47,374.71a28.09,28.09,0,0,0-2.45-6.6,20.53,20.53,0,0,0-8.36-8.13c-.7-.38-1.15-.57-1.15-.57s-1.54,6.86,1.5,12.8,7.3,9.84,9.51,8.71C508.87,380.23,509.14,377.83,508.47,374.71Z" transform="translate(-12.87 -95.5)"/><path class="cls-3" d="M518.29,393.45a10.6,10.6,0,0,0-19.48-1.61,19.36,19.36,0,0,1,7.84,7.62,26.46,26.46,0,0,1,2.29,6.19,10.75,10.75,0,0,0,1.51-.2,26.31,26.31,0,0,1,2.32-5.95A17.88,17.88,0,0,1,518.29,393.45Z" transform="translate(-12.87 -95.5)"/><path class="cls-3" d="M521.78,391.45a19.43,19.43,0,0,0-3.49,2,17.88,17.88,0,0,0-5.52,6.05,26.31,26.31,0,0,0-2.32,5.95c-.73,3-.52,5.36.77,6,2.06,1.08,6.1-2.52,9-8.06S521.78,391.45,521.78,391.45Z" transform="translate(-12.87 -95.5)"/><path class="cls-3" d="M508.94,405.65a26.46,26.46,0,0,0-2.29-6.19,19.36,19.36,0,0,0-7.84-7.62c-.66-.36-1.08-.54-1.08-.54s-1.44,6.44,1.41,12,6.84,9.22,8.91,8.16C509.32,410.82,509.57,408.57,508.94,405.65Z" transform="translate(-12.87 -95.5)"/><ellipse class="cls-3" cx="466.78" cy="303.05" rx="2.68" ry="2.19" transform="translate(148.05 672.49) rotate(-89.65)"/><ellipse class="cls-3" cx="484.68" cy="334.66" rx="3.28" ry="3.32" transform="translate(134.22 721.8) rotate(-89.65)"/><ellipse class="cls-3" cx="474.97" cy="350.46" rx="2.76" ry="2.8" transform="translate(108.78 727.8) rotate(-89.65)"/><ellipse class="cls-3" cx="486.46" cy="361.88" rx="3.32" ry="3" transform="translate(108.77 750.64) rotate(-89.65)"/><ellipse class="cls-3" cx="461.51" cy="377.22" rx="2.19" ry="1.82" transform="translate(68.64 740.94) rotate(-89.65)"/><ellipse class="cls-3" cx="486.54" cy="388.44" rx="2.96" ry="2.92" transform="translate(82.3 777.12) rotate(-89.65)"/><ellipse class="cls-3" cx="475.73" cy="405.52" rx="1.7" ry="1.54" transform="translate(54.47 783.3) rotate(-89.65)"/><ellipse class="cls-3" cx="486.43" cy="413.13" rx="2.27" ry="2.88" transform="translate(57.49 801.56) rotate(-89.65)"/><ellipse class="cls-3" cx="532.42" cy="411.42" rx="1.74" ry="2.64" transform="translate(104.92 845.85) rotate(-89.65)"/><circle class="cls-3" cx="520.01" cy="293.38" r="2.72"/><ellipse class="cls-3" cx="546.66" cy="363.09" rx="2.72" ry="2.07" transform="translate(167.4 812.06) rotate(-89.65)"/><ellipse class="cls-3" cx="533.2" cy="362.81" rx="2.68" ry="2.47" transform="translate(154.31 798.31) rotate(-89.65)"/><ellipse class="cls-3" cx="543.46" cy="322.16" rx="2.68" ry="2.11" transform="translate(205.15 768.17) rotate(-89.65)"/><ellipse class="cls-3" cx="557.9" cy="336.16" rx="2.15" ry="1.62" transform="translate(205.5 796.51) rotate(-89.65)"/><ellipse class="cls-3" cx="532.85" cy="333.9" rx="2.88" ry="2.6" transform="translate(182.87 769.22) rotate(-89.65)"/><ellipse class="cls-3" cx="549.26" cy="289.43" rx="2.19" ry="1.7" transform="translate(243.64 741.43) rotate(-89.65)"/><ellipse class="cls-3" cx="562.01" cy="292.88" rx="1.82" ry="0.77" transform="translate(252.87 757.61) rotate(-89.65)"/><ellipse class="cls-3" cx="563.03" cy="305.9" rx="1.7" ry="0.73" transform="translate(240.86 771.57) rotate(-89.65)"/><ellipse class="cls-3" cx="568.3" cy="305.04" rx="1.87" ry="0.81" transform="matrix(0.01, -1, 1, 0.01, 246.96, 775.99)"/><path class="cls-3" d="M506.05,259.65c-.38.41-4.55,5.08-3.06,10.85,1,3.84,4.51,8.27,8.54,7.84s6-5.59,6.12-5.89c1.48-4.12,0-9.05-3.65-12.75" transform="translate(-12.87 -95.5)"/></g></svg>